<svg width="34" height="32" viewBox="0 0 34 32" fill="none" xmlns="http://www.w3.org/2000/svg">
<path d="M0 10V22H8L18 32V0L8 10H0Z" fill="#D4AF37"/>
<path d="M33.6631 20.0769C34.1123 20.5264 34.1123 21.2257 33.6631 21.6753C33.4386 21.9001 33.1641 22 32.8647 22C32.5653 22 32.2908 21.9001 32.0662 21.6753L27.5 17.1047L22.9338 21.6753C22.7092 21.9001 22.4347 22 22.1353 22C21.8359 22 21.5614 21.9001 21.3369 21.6753C20.8877 21.2257 20.8877 20.5264 21.3369 20.0769L25.9031 15.5062L21.3369 10.9356C20.8877 10.4861 20.8877 9.78674 21.3369 9.33718C21.786 8.88761 22.4846 8.88761 22.9338 9.33718L27.5 13.9078L32.0662 9.33718C32.5154 8.88761 33.214 8.88761 33.6631 9.33718C34.1123 9.78674 34.1123 10.4861 33.6631 10.9356L29.0969 15.5062L33.6631 20.0769Z" fill="#D4AF37"/>
</svg>
