<svg width="314" height="363" viewBox="0 0 314 363" fill="none" xmlns="http://www.w3.org/2000/svg">
<path d="M162.622 180.687H136.471C135.889 180.687 135.315 180.822 134.795 181.083C133.525 181.717 132.723 183.015 132.723 184.435V186.186C132.723 187.275 132.993 188.348 133.509 189.307L137.734 197.152L152.052 221.492L162.79 240.821L171.678 255.423C172.425 256.65 173.432 257.699 174.627 258.496C176.245 259.575 178.145 260.15 180.089 260.15H306.743C307.64 260.15 308.521 259.906 309.29 259.444L310.422 258.766C311.211 258.292 311.694 257.439 311.694 256.519C311.694 256.083 311.585 255.654 311.377 255.271L302.387 238.673L290.933 217.913L279.479 197.868L275.441 191.522C274.835 190.57 273.784 189.993 272.655 189.993C271.551 189.993 270.521 190.545 269.908 191.464L269.457 192.141L252.138 220.544C251.753 221.174 251.306 221.764 250.802 222.305C248.733 224.526 245.834 225.787 242.799 225.787H199.481C197.969 225.787 196.499 225.297 195.289 224.39C194.628 223.894 194.059 223.284 193.611 222.589L179.971 201.447L170.032 184.882C169.503 184.001 168.822 183.222 168.02 182.58C166.488 181.355 164.585 180.687 162.622 180.687Z" fill="#D4AF37" stroke="#D4AF37"/>
<path d="M213.867 1H186.71C186.062 1 185.44 1.25751 184.981 1.71588C184.523 2.17426 184.266 2.79594 184.266 3.44418V4.631C184.266 5.53609 184.497 6.42615 184.938 7.21665L249.569 123.131C249.936 123.789 250.454 124.35 251.08 124.767C251.859 125.287 252.774 125.564 253.71 125.564H279.616C280.47 125.564 281.315 125.39 282.099 125.054L283.094 124.628C284.809 123.893 285.921 122.206 285.921 120.34C285.921 119.541 285.716 118.755 285.325 118.058L252.99 60.4184L225.787 11.7383L222.343 6.57219C221.777 5.72301 221.128 4.93182 220.406 4.21016L219.55 3.354C218.939 2.74317 218.234 2.23482 217.461 1.8485C216.345 1.2905 215.115 1 213.867 1Z" fill="#D4AF37" stroke="#D4AF37"/>
<path d="M299.649 299.479L312.815 275.726C313.129 275.159 313.205 274.491 313.027 273.868C312.848 273.245 312.429 272.718 311.862 272.404L310.824 271.828C310.032 271.39 309.142 271.16 308.237 271.163L175.521 271.494C174.769 271.496 174.027 271.677 173.358 272.022C172.526 272.452 171.84 273.118 171.386 273.936L158.827 296.594C158.413 297.341 158.155 298.164 158.069 299.014L157.96 300.09C157.771 301.946 158.707 303.737 160.339 304.641C161.038 305.029 161.825 305.23 162.624 305.226L228.713 304.89L284.478 304.698L290.666 304.19C291.683 304.107 292.69 303.923 293.671 303.642L294.834 303.308C295.665 303.07 296.451 302.7 297.164 302.211C298.193 301.506 299.044 300.57 299.649 299.479Z" fill="#D4AF37" stroke="#D4AF37"/>
<path d="M238.882 125.542L174.556 11.4153C173.921 10.288 172.727 9.59064 171.433 9.59064C170.482 9.59064 169.57 9.96833 168.898 10.6406L168.858 10.6809C168.631 10.9076 168.435 11.1627 168.273 11.4397L131.001 75.4355C130.722 75.9151 130.574 76.4603 130.574 77.0153C130.574 77.8478 130.905 78.6462 131.494 79.2349L131.73 79.471C131.914 79.6547 132.115 79.8198 132.331 79.9639L132.536 80.1001C133.591 80.8036 134.831 81.179 136.099 81.179H165.873C166.679 81.179 167.484 81.2457 168.28 81.3782L168.874 81.4773C170.526 81.7526 172.1 82.3752 173.494 83.3041C174.931 84.262 176.14 85.5229 177.038 86.9981L185.698 101.224L197.079 122.788C198.537 125.551 199.299 128.629 199.299 131.753V133.459C199.299 134.394 199.149 135.323 198.853 136.21C198.674 136.747 198.442 137.266 198.162 137.759L178.882 171.665C178.188 172.886 177.823 174.267 177.823 175.671C177.823 177.081 178.191 178.467 178.891 179.692L194.471 206.958C194.801 207.535 195.414 207.89 196.078 207.89C196.742 207.89 197.355 207.535 197.684 206.958L238.854 134.911C239.674 133.477 240.105 131.854 240.105 130.202C240.105 128.569 239.683 126.964 238.882 125.542Z" fill="#D4AF37" stroke="#D4AF37"/>
<path d="M181.896 135.6L101.283 136.289C100.302 136.298 99.3357 136.53 98.4581 136.969C97.4557 137.47 96.6014 138.224 95.9797 139.157L94.0649 142.029L30.7129 255.209C30.4757 255.632 30.3512 256.11 30.3512 256.595C30.3512 258.163 31.6223 259.434 33.1901 259.434H104.634C105.216 259.434 105.79 259.299 106.31 259.038C107.58 258.403 108.383 257.106 108.383 255.686V255.6C108.383 254.832 108.155 254.082 107.73 253.444L106.951 252.275L102.655 244.401L93.1862 227.238C91.8842 224.878 91.2013 222.226 91.2013 219.531C91.2013 217.055 91.7779 214.612 92.8855 212.397L94.0649 210.038L114.506 175.97C115.192 174.827 116.057 173.802 117.069 172.934C119.317 171.008 122.18 169.949 125.14 169.949H163.135C166.091 169.949 168.895 168.635 170.788 166.364C171.182 165.891 171.531 165.383 171.832 164.846L184.175 142.758C184.704 141.811 184.982 140.743 184.982 139.658V138.66C184.982 138.056 184.803 137.466 184.468 136.963C183.895 136.104 182.928 135.592 181.896 135.6Z" fill="#D4AF37" stroke="#D4AF37"/>
<path d="M181.896 135.6L101.283 136.289C100.302 136.298 99.3357 136.53 98.4581 136.969C97.4557 137.47 96.6014 138.224 95.9797 139.157L94.0649 142.029L30.7129 255.209C30.4757 255.632 30.3512 256.11 30.3512 256.595C30.3512 258.163 31.6223 259.434 33.1901 259.434H104.634C105.216 259.434 105.79 259.299 106.31 259.038C107.58 258.403 108.383 257.106 108.383 255.686V255.6C108.383 254.832 108.155 254.082 107.73 253.444L106.951 252.275L102.655 244.401L93.1862 227.238C91.8842 224.878 91.2013 222.226 91.2013 219.531C91.2013 217.055 91.7779 214.612 92.8855 212.397L94.0649 210.038L114.506 175.97C115.192 174.827 116.057 173.802 117.069 172.934C119.317 171.008 122.18 169.949 125.14 169.949H163.135C166.091 169.949 168.895 168.635 170.788 166.364C171.182 165.891 171.531 165.383 171.832 164.846L184.175 142.758C184.704 141.811 184.982 140.743 184.982 139.658V138.66C184.982 138.056 184.803 137.466 184.468 136.963C183.895 136.104 182.928 135.592 181.896 135.6Z" fill="#D4AF37" stroke="#D4AF37"/>
<path d="M2.21292 216.487L67.5837 101.045C68.0221 100.27 68.843 99.7919 69.7327 99.7919C70.614 99.7919 71.4285 100.262 71.87 101.024L85.4509 124.482C86.4041 126.128 86.9061 127.997 86.9061 129.9C86.9061 131.751 86.431 133.57 85.5264 135.185L20.6788 250.935C20.4627 251.32 20.0551 251.559 19.613 251.559C18.2821 251.559 17.0504 250.856 16.3744 249.709L2.29519 225.836C1.44723 224.398 1 222.759 1 221.09C1 219.477 1.41787 217.891 2.21292 216.487Z" fill="#D4AF37" stroke="#D4AF37"/>
<path d="M96.3303 120.647L84.0216 99.9458C82.8242 97.932 82.1923 95.6326 82.1923 93.2897C82.1923 92.499 82.8333 91.858 83.624 91.858H159.994C163.372 91.858 166.636 93.0844 169.179 95.3093C170.359 96.3418 171.357 97.5659 172.13 98.93L182.393 117.042C182.877 117.897 183.132 118.862 183.132 119.844V121.04C183.132 122.46 182.33 123.758 181.06 124.393C180.539 124.653 179.965 124.789 179.383 124.789H103.612C102.701 124.789 101.797 124.642 100.933 124.354C99.0034 123.711 97.3697 122.395 96.3303 120.647Z" fill="#D4AF37" stroke="#D4AF37"/>
<path d="M163.164 268.754L150.833 290.76C149.633 292.901 147.878 294.678 145.753 295.905C145.036 296.319 144.119 296.074 143.705 295.356L103.709 226.083C101.94 223.018 101.343 219.415 102.03 215.943C102.348 214.332 102.936 212.786 103.769 211.371L114.823 192.576C115.344 191.689 116.087 190.952 116.978 190.438L118.063 189.812C119.35 189.068 120.948 189.116 122.189 189.935C122.697 190.271 123.121 190.721 123.426 191.249L163.108 259.98C163.585 260.806 163.925 261.703 164.116 262.637C164.543 264.724 164.205 266.895 163.164 268.754Z" fill="#D4AF37" stroke="#D4AF37"/>
<path d="M208.522 208.954L250.046 137.67C250.56 136.788 251.377 136.124 252.345 135.802C252.773 135.659 253.221 135.586 253.672 135.586H282.665C282.926 135.586 283.187 135.612 283.444 135.663C285.301 136.035 286.637 137.665 286.637 139.559V140.096C286.637 140.894 286.431 141.678 286.038 142.373L277.331 157.779L265.877 178.539L254.423 198.584L248.311 209.586C247.618 210.832 246.71 211.945 245.627 212.873C243.45 214.739 240.676 215.765 237.808 215.765H212.186C211.256 215.765 210.352 215.464 209.608 214.906C208.527 214.095 207.89 212.822 207.89 211.47V211.293C207.89 210.471 208.108 209.664 208.522 208.954Z" fill="#D4AF37" stroke="#D4AF37"/>
<path d="M208.522 208.954L250.046 137.67C250.56 136.788 251.377 136.124 252.345 135.802C252.773 135.659 253.221 135.586 253.672 135.586H282.665C282.926 135.586 283.187 135.612 283.444 135.663C285.301 136.035 286.637 137.665 286.637 139.559V140.096C286.637 140.894 286.431 141.678 286.038 142.373L277.331 157.779L265.877 178.539L254.423 198.584L248.311 209.586C247.618 210.832 246.71 211.945 245.627 212.873C243.45 214.739 240.676 215.765 237.808 215.765H212.186C211.256 215.765 210.352 215.464 209.608 214.906C208.527 214.095 207.89 212.822 207.89 211.47V211.293C207.89 210.471 208.108 209.664 208.522 208.954Z" fill="#D4AF37" stroke="#D4AF37"/>
</svg>
