<svg width="36" height="36" viewBox="0 0 36 36" fill="none" xmlns="http://www.w3.org/2000/svg">
<path d="M18 36C27.9411 36 36 27.9411 36 18C36 8.05887 27.9411 0 18 0C8.05887 0 0 8.05887 0 18C0 27.9411 8.05887 36 18 36Z" fill="#AA8DD8"/>
<path d="M10 3.99998C7.42 3.99998 4.369 1.53398 3.414 0.585982C2.843 0.0139819 1.981 -0.157018 1.235 0.152982C0.487 0.461982 0 1.19098 0 1.99998C0 5.45898 1.672 12 8 12C8.757 12 9.45 11.572 9.789 10.894L11.789 6.89398C12.099 6.27398 12.066 5.53798 11.701 4.94798C11.337 4.35898 10.693 3.99998 10 3.99998ZM34.766 0.152982C34.016 -0.158018 33.159 0.0139819 32.586 0.586982C31.7 1.47198 28.589 3.99998 26 3.99998C25.307 3.99998 24.663 4.35898 24.299 4.94898C23.935 5.53798 23.902 6.27498 24.211 6.89498L26.211 10.895C26.55 11.572 27.242 12 28 12C34.328 12 36 5.45898 36 1.99998C36 1.19098 35.513 0.461982 34.766 0.152982V0.152982Z" fill="#AA8DD8"/>
<path d="M27.335 25.629C27.157 25.468 26.891 25.458 26.7 25.6C26.661 25.629 22.778 28.5 18 28.5C13.234 28.5 9.338 25.629 9.3 25.6C9.109 25.458 8.843 25.47 8.665 25.629C8.488 25.789 8.448 26.053 8.571 26.257C8.7 26.472 11.788 31.5 18 31.5C24.212 31.5 27.301 26.472 27.429 26.257C27.552 26.052 27.513 25.789 27.335 25.629V25.629ZM15.707 18.293C12.452 15.038 7.221 15 7 15C6.448 15 6.001 15.447 6.001 15.998C6 16.55 6.447 16.999 6.999 17C7.028 17 8.924 17.022 10.982 17.737C10.389 18.377 10 19.371 10 20.5C10 22.434 11.119 24 12.5 24C13.881 24 15 22.434 15 20.5C15 20.326 14.981 20.16 14.963 19.993C14.976 19.993 14.988 20 15 20C15.256 20 15.512 19.902 15.707 19.707C16.098 19.316 16.098 18.684 15.707 18.293V18.293ZM29 15C28.779 15 23.549 15.038 20.293 18.293C19.902 18.684 19.902 19.316 20.293 19.707C20.488 19.902 20.744 20 21 20C21.013 20 21.024 19.993 21.036 19.993C21.02 20.16 21 20.326 21 20.5C21 22.434 22.119 24 23.5 24C24.881 24 26 22.434 26 20.5C26 19.371 25.611 18.377 25.018 17.737C27.076 17.022 28.972 17 29.002 17C29.553 16.999 30 16.55 29.999 15.998C29.998 15.447 29.552 15 29 15V15Z" fill="#553986"/>
</svg>
