<svg width="515" height="379" viewBox="0 0 515 379" fill="none" xmlns="http://www.w3.org/2000/svg">
<path d="M76.0032 365.918C73.8903 366.332 71.3632 367.242 71.1146 369.393C70.8246 371.792 73.7663 373.198 76.1277 373.694C85.0351 375.638 94.2326 375.887 103.389 376.135C151.779 377.293 200.169 377.5 248.56 376.714C247.856 370.799 240.811 368.235 234.97 367.118C209.863 362.319 183.887 365.05 159.236 359.962C133.26 354.543 101.648 360.665 76.0032 365.918Z" fill="url(#paint0_linear_123_46)"/>
<path d="M76.0032 365.918C73.8903 366.332 71.3632 367.242 71.1146 369.393C70.8246 371.792 73.7663 373.198 76.1277 373.694C85.0351 375.638 94.2326 375.887 103.389 376.135C151.779 377.293 200.169 377.5 248.56 376.714C247.856 370.799 240.811 368.235 234.97 367.118C209.863 362.319 183.887 365.05 159.236 359.962C133.26 354.543 101.648 360.665 76.0032 365.918Z" fill="url(#paint1_linear_123_46)"/>
<path d="M207.788 326.953C208.327 326.788 208.907 326.953 209.445 327.119C211.807 327.904 214.127 328.938 216.198 330.303C217.234 330.965 218.27 331.71 218.767 332.827C219.223 333.861 219.181 335.019 219.099 336.095C218.353 349.414 217.648 362.774 216.903 376.093C216.861 376.962 216.737 377.914 216.074 378.451C215.245 379.072 214.085 378.658 213.174 378.244C204.267 374.356 195.401 370.427 186.493 366.538C182.226 364.677 177.834 362.692 174.686 359.258C177.088 353.964 182.143 350.448 186.783 346.89C193.992 341.348 200.621 334.978 206.462 328.029C206.794 327.615 207.208 327.118 207.788 326.953Z" fill="#DDC199"/>
<path d="M249.758 258.33C247.562 257.834 245.323 257.337 243.128 256.841C230.202 280.543 218.768 305.072 208.907 330.221C211.186 331.669 214.21 333.158 216.406 331.586C217.317 330.924 217.856 329.849 218.353 328.815C229.539 305.651 240.021 282.156 249.758 258.33Z" fill="#BDB39B"/>
<g opacity="0.26">
<path opacity="0.26" d="M209.025 373.653C208.983 374.108 209.688 374.273 209.77 373.819C211.552 360.375 214.079 347.18 217.352 334.026C217.559 333.199 216.275 332.951 216.068 333.778C212.67 346.808 210.309 360.21 209.025 373.653Z" fill="#272525"/>
<path opacity="0.26" d="M194.987 367.738C200.456 356.239 206.256 344.905 212.388 333.737C212.761 333.075 211.683 332.537 211.311 333.199C204.93 344.45 199.172 356.032 193.91 367.821C193.993 367.903 194.034 367.986 194.076 368.069C194.366 367.862 194.656 367.779 194.987 367.738Z" fill="#272525"/>
<path opacity="0.26" d="M186.074 360.168C195.23 351.564 203.391 342.009 210.517 331.668C210.973 330.965 209.813 330.386 209.357 331.089C202.355 341.389 194.318 350.902 185.328 359.506C184.872 359.961 185.618 360.623 186.074 360.168Z" fill="#272525"/>
</g>
<path d="M122.567 338.742C122.609 338.121 122.691 337.459 122.733 336.839C117.264 333.116 107.652 334.315 101.852 336.218C95.6376 338.245 95.6374 342.051 95.7204 348.503C95.7617 352.143 96.0932 356.239 98.9104 358.596C101.065 360.416 104.089 360.664 106.906 360.83C109.434 360.995 111.92 361.119 114.447 361.285C116.187 361.368 118.134 361.409 119.501 360.292C120.868 359.134 121.076 357.19 121.241 355.411C121.697 349.827 122.153 344.284 122.567 338.742Z" fill="#2F3F47"/>
<path d="M129.242 338.742C129.201 338.121 129.118 337.459 129.076 336.839C134.545 333.116 144.157 334.315 149.957 336.218C156.171 338.245 156.171 342.051 156.089 348.503C156.047 352.143 155.716 356.239 152.898 358.596C150.744 360.416 147.72 360.664 144.902 360.83C142.375 360.995 139.89 361.119 137.362 361.285C135.622 361.368 133.675 361.409 132.308 360.292C130.941 359.134 130.734 357.19 130.568 355.411C130.154 349.827 129.698 344.284 129.242 338.742Z" fill="#2F3F47"/>
<path d="M82.5838 324.926C81.2166 325.216 79.8909 325.629 78.6064 326.167C77.6535 326.539 76.7009 327.036 76.0378 327.78C75.1264 328.856 74.8778 330.345 74.712 331.793C74.505 333.695 74.422 335.598 74.4635 337.501C74.4635 339.114 74.588 340.769 75.4167 342.134C76.5766 344.036 78.8552 344.905 81.0096 345.443C85.111 346.477 89.3782 346.725 93.6041 346.932C119.166 348.173 144.812 347.345 170.249 344.491C171.285 344.367 172.445 344.202 173.149 343.416C173.564 342.961 173.771 342.34 173.978 341.761C175.304 337.542 176.174 331.793 173.315 327.863C170.871 324.513 166.355 326.415 162.958 326.374C159.478 326.332 155.956 326.043 152.476 325.919C145.681 325.629 138.887 325.34 132.093 325.133C122.522 324.802 112.911 324.513 103.34 324.264C96.8772 324.14 89.2542 323.437 82.5838 324.926Z" fill="#516770"/>
<path d="M137.521 234.132C154.88 234.215 172.198 234.587 189.557 234.959C189.143 225.735 188.48 216.511 186.492 207.493C183.053 191.692 175.181 176.264 161.882 167.039C141.499 152.893 109.142 154.754 87.1841 168.735C77.945 174.609 70.5293 182.675 66.6349 192.561C62.1605 203.853 60.9588 216.18 60.2546 228.3C60.1716 229.913 60.0889 231.485 60.0061 233.098C85.7753 232.105 111.711 234.049 137.521 234.132Z" fill="#EAF1F2"/>
<path d="M136.132 238.765C110.694 238.724 85.1733 236.904 59.7353 237.814C58.4924 265.362 59.6526 293.035 63.2157 320.418C63.7127 324.182 64.3341 328.112 66.82 331.09C70.6729 335.681 77.343 333.654 82.5218 333.654C91.2635 333.654 100.254 334.027 109.078 334.233C125.733 334.606 142.264 334.647 158.836 332.786C166.707 331.917 182.616 334.316 186.387 327.243C189.494 321.493 188.209 309.829 188.665 303.417C189.204 295.806 189.618 288.237 189.867 280.626C190.322 266.934 190.239 253.242 189.701 239.509C171.886 239.179 153.988 238.765 136.132 238.765Z" fill="#E2ECED"/>
<path d="M196.21 283.356C196.541 283.066 196.583 282.57 196.624 282.156C197.494 270.698 198.24 259.24 198.779 247.782C198.82 246.79 198.82 245.631 198.033 244.97C197.453 244.515 196.707 244.473 195.961 244.473C193.393 244.432 190.865 244.391 188.297 244.391C186.681 257.42 186.018 270.533 186.349 283.645C189.208 283.645 192.025 283.687 194.884 283.687C195.34 283.687 195.837 283.687 196.21 283.356Z" fill="#2F3F47"/>
<path d="M209.416 309.747C209.747 308.795 210.12 307.802 210.866 307.099C211.446 306.562 212.233 306.231 212.979 305.982C216.21 304.824 219.525 303.956 222.881 303.376C225.491 305.155 227.852 307.265 229.882 309.705C230.255 310.16 230.628 310.657 230.711 311.236C230.794 311.691 230.669 312.146 230.545 312.601C229.219 317.689 227.935 322.776 226.609 327.864C224.662 328.112 222.715 328.154 220.809 327.906C221.555 324.803 222.301 321.701 223.005 318.64C223.709 315.703 224.248 312.105 222.011 310.036C219.732 310.615 217.495 311.236 215.216 311.815C214.843 311.898 214.429 312.022 214.097 312.27C213.725 312.601 213.559 313.097 213.393 313.552C212.44 316.448 211.736 319.426 211.239 322.446C209.789 322.032 208.339 321.659 206.889 321.246C206.764 317.316 208.09 313.47 209.416 309.747Z" fill="#2F3F47"/>
<path d="M227.023 305.279C227.147 305.155 227.188 304.99 227.23 304.866C227.644 303.004 228.058 301.143 228.514 299.323C225.614 298.661 222.631 298.206 219.69 297.958C219.234 299.488 218.944 301.101 218.82 302.715C218.778 303.046 218.778 303.459 219.027 303.707C219.192 303.873 219.4 303.914 219.607 303.997C221.803 304.659 224.081 305.155 226.401 305.444C226.567 305.403 226.815 305.445 227.023 305.279Z" fill="#516770"/>
<path d="M229.927 298.041C231.667 295.104 230.259 287.369 230.259 284.267C230.217 280.006 230.217 275.704 229.223 271.568C228.229 267.431 226.198 263.378 222.843 260.772C220.937 259.283 218.7 258.332 216.379 257.546C209.461 255.188 202.045 254.402 194.795 255.271C194.215 255.353 193.593 255.436 193.179 255.85C192.723 256.263 192.64 256.925 192.557 257.546C192.226 259.903 191.77 262.509 191.894 264.908C192.102 269.127 191.232 267.969 194.298 269.169C196.659 270.079 201.092 269.334 203.785 269.955C206.934 270.658 209.999 271.734 213.065 272.809C215.012 273.471 217.084 274.298 218.078 276.077C218.617 277.028 218.783 278.186 218.907 279.303C219.653 285.922 219.984 292.581 219.943 299.241C219.943 300.399 228.477 299.82 229.596 298.537C229.72 298.372 229.803 298.207 229.927 298.041Z" fill="#E2ECED"/>
<g opacity="0.15">
<path opacity="0.15" d="M215.423 259.449C215.175 263.42 214.139 267.019 212.565 270.659C212.275 271.362 213.145 271.9 213.601 271.279C216.086 267.805 217.371 263.668 217.827 259.449C217.992 257.96 215.548 257.918 215.423 259.449Z" fill="#272525"/>
<path opacity="0.15" d="M221.764 262.303C221.06 266.15 219.32 268.673 216.586 271.403C216.213 271.775 216.71 272.396 217.124 272.106C218.988 270.948 220.728 270.203 222.054 268.342C223.297 266.605 224.126 264.743 224.374 262.634C224.54 261.186 222.054 260.855 221.764 262.303Z" fill="#272525"/>
</g>
<path d="M55.6689 244.722C55.3376 245.011 55.2963 245.508 55.2548 245.921C54.3847 257.379 53.6391 268.837 53.1005 280.295C53.059 281.288 53.059 282.446 53.8461 283.108C54.4262 283.562 55.1718 283.604 55.9174 283.604C58.4861 283.645 61.0133 283.687 63.5819 283.687C65.1977 270.657 65.8608 257.544 65.5293 244.432C62.6705 244.432 59.8533 244.391 56.9949 244.391C56.539 244.391 56.0005 244.391 55.6689 244.722Z" fill="#2F3F47"/>
<path d="M23.5561 230.616C23.6803 231.609 23.8044 232.684 23.4315 233.594C23.1415 234.339 22.6031 234.96 22.0231 235.539C19.6616 237.979 17.093 240.254 14.3172 242.281C11.1685 241.868 8.10271 240.999 5.24404 239.717C4.70545 239.468 4.12528 239.22 3.79385 238.724C3.54526 238.352 3.42104 237.896 3.33818 237.441C2.261 232.312 1.14249 227.142 0.0653076 222.013C1.68108 220.937 3.42114 220.027 5.24404 219.365C5.94835 222.468 6.6939 225.57 7.39822 228.672C8.10253 231.609 9.22119 235.084 12.1213 235.911C13.9028 234.381 15.6429 232.85 17.4244 231.32C17.7144 231.071 18.0459 230.782 18.2116 230.41C18.4187 229.955 18.3357 229.417 18.2528 228.92C17.7971 225.901 17.1343 222.923 16.2228 219.986C17.7143 219.696 19.1643 219.407 20.6558 219.117C22.5616 222.633 23.0587 226.687 23.5561 230.616Z" fill="#2F3F47"/>
<path d="M9.79234 242.405C9.75091 242.57 9.79234 242.736 9.79234 242.86C10.2481 244.722 10.7038 246.542 11.1181 248.403C14.0182 247.7 16.8769 246.79 19.6527 245.714C19.4041 244.142 18.9483 242.57 18.3269 241.081C18.2026 240.751 18.037 240.419 17.7056 240.295C17.4984 240.213 17.2911 240.254 17.0426 240.295C14.7639 240.668 12.5267 241.247 10.331 241.991C10.1238 242.074 9.8752 242.198 9.79234 242.405Z" fill="#516770"/>
<path d="M10.4237 250.182C10.1337 253.574 14.8566 259.861 16.2652 262.674C18.171 266.48 20.1183 270.327 22.8527 273.594C25.5871 276.862 29.1912 279.592 33.3756 280.419C35.7373 280.916 38.1814 280.792 40.5846 280.461C47.8348 279.509 54.8364 276.945 60.9267 272.933C61.4237 272.602 61.9208 272.271 62.1281 271.692C62.3351 271.113 62.1281 270.492 61.9623 269.872C61.1752 267.597 60.4708 265.074 59.2694 262.964C57.1978 259.283 58.5238 259.944 55.2092 260.192C52.6821 260.399 49.0362 263.047 46.3433 263.708C43.1945 264.494 39.9632 264.867 36.773 265.28C34.7429 265.528 32.5058 265.735 30.807 264.577C29.8956 263.957 29.2327 263.005 28.6526 262.054C25.0483 256.47 21.7753 250.637 18.8338 244.64C18.3367 243.606 10.9621 247.908 10.5063 249.562C10.4649 249.81 10.4237 249.976 10.4237 250.182Z" fill="#E2ECED"/>
<g opacity="0.15">
<path opacity="0.15" d="M40.5346 278.309C39.0016 274.627 38.339 270.946 38.0904 266.975C38.0489 266.189 37.013 266.107 36.8887 266.892C36.2259 271.112 36.889 275.372 38.3805 279.343C38.9191 280.791 41.1559 279.715 40.5346 278.309Z" fill="#272525"/>
<path opacity="0.15" d="M33.6236 278.599C32.5465 274.835 32.9608 271.815 34.2035 268.134C34.3693 267.637 33.6649 267.306 33.3749 267.72C32.2564 269.581 31.0135 271.029 30.6407 273.263C30.3094 275.372 30.3921 277.399 31.1377 279.385C31.6351 280.832 33.9965 280.005 33.6236 278.599Z" fill="#272525"/>
</g>
<path d="M71.5753 207.08C71.6166 208.652 71.6994 210.265 72.3622 211.713C74.0608 215.312 78.5352 216.47 82.4711 217.131C104.968 220.896 127.961 222.178 150.582 219.324C153.565 218.952 156.548 218.497 159.282 217.256C162.017 216.015 164.461 213.905 165.455 211.134C166.077 209.355 166.118 207.452 166.159 205.55C166.201 203.647 166.201 201.703 166.242 199.8C166.242 198.931 166.242 198.063 165.911 197.235C165.538 196.367 164.792 195.664 164.005 195.126C161.022 193.099 157.252 192.644 153.648 192.272C129.701 189.873 105.465 187.763 81.6427 190.989C80.6483 191.113 79.6124 191.279 78.908 191.982C78.5352 192.313 78.2867 192.768 77.9139 193.099C77.2095 193.637 76.2569 193.595 75.4282 193.885C73.1081 194.629 72.2795 197.484 71.9894 199.924C71.6581 202.282 71.5338 204.681 71.5753 207.08Z" fill="#2F3F47"/>
<path opacity="0.2" d="M101.566 210.554C102.353 209.106 102.477 207.411 102.312 205.756C102.229 204.763 101.98 203.729 101.359 202.985C100.033 201.413 97.5887 201.578 95.5586 201.206C93.7771 201.951 92.2853 203.398 91.5397 205.177C91.0839 206.252 90.8768 207.411 91.0011 208.569C91.2911 210.927 93.2385 212.954 95.5586 213.367C97.92 213.864 100.447 212.664 101.566 210.554Z" fill="#EAF1F2"/>
<path opacity="0.2" d="M141.018 210.554C141.805 209.106 141.929 207.411 141.764 205.756C141.681 204.763 141.432 203.729 140.811 202.985C139.485 201.413 137.041 201.578 135.011 201.206C133.229 201.951 131.738 203.398 130.992 205.177C130.536 206.252 130.329 207.411 130.453 208.569C130.743 210.927 132.691 212.954 135.011 213.367C137.331 213.864 139.858 212.664 141.018 210.554Z" fill="#EAF1F2"/>
<path fill-rule="evenodd" clip-rule="evenodd" d="M216 0C182.863 0 156 26.8629 156 60V69C156 102.137 182.863 129 216 129H306.632C282.863 183.298 215.849 194.542 183 193C265.871 201.253 320.93 159.844 345.764 129H455C488.137 129 515 102.137 515 69V60C515 26.8629 488.137 0 455 0H216Z" fill="#C4C4C4"/>
<path d="M195.825 40.112C195.089 40.112 194.428 39.984 193.841 39.728C193.265 39.4613 192.812 39.0987 192.481 38.64C192.151 38.1707 191.98 37.632 191.969 37.024H193.521C193.575 37.5467 193.788 37.9893 194.161 38.352C194.545 38.704 195.1 38.88 195.825 38.88C196.519 38.88 197.063 38.7093 197.457 38.368C197.863 38.016 198.065 37.568 198.065 37.024C198.065 36.5973 197.948 36.2507 197.713 35.984C197.479 35.7173 197.185 35.5147 196.833 35.376C196.481 35.2373 196.007 35.088 195.409 34.928C194.673 34.736 194.081 34.544 193.633 34.352C193.196 34.16 192.817 33.8613 192.497 33.456C192.188 33.04 192.033 32.4853 192.033 31.792C192.033 31.184 192.188 30.6453 192.497 30.176C192.807 29.7067 193.239 29.344 193.793 29.088C194.359 28.832 195.004 28.704 195.729 28.704C196.775 28.704 197.628 28.9653 198.289 29.488C198.961 30.0107 199.34 30.704 199.425 31.568H197.825C197.772 31.1413 197.548 30.768 197.153 30.448C196.759 30.1173 196.236 29.952 195.585 29.952C194.977 29.952 194.481 30.112 194.097 30.432C193.713 30.7413 193.521 31.1787 193.521 31.744C193.521 32.1493 193.633 32.48 193.857 32.736C194.092 32.992 194.375 33.1893 194.705 33.328C195.047 33.456 195.521 33.6053 196.129 33.776C196.865 33.9787 197.457 34.1813 197.905 34.384C198.353 34.576 198.737 34.88 199.057 35.296C199.377 35.7013 199.537 36.256 199.537 36.96C199.537 37.504 199.393 38.016 199.105 38.496C198.817 38.976 198.391 39.3653 197.825 39.664C197.26 39.9627 196.593 40.112 195.825 40.112ZM202.192 29.808C201.914 29.808 201.68 29.712 201.488 29.52C201.296 29.328 201.2 29.0933 201.2 28.816C201.2 28.5387 201.296 28.304 201.488 28.112C201.68 27.92 201.914 27.824 202.192 27.824C202.458 27.824 202.682 27.92 202.864 28.112C203.056 28.304 203.152 28.5387 203.152 28.816C203.152 29.0933 203.056 29.328 202.864 29.52C202.682 29.712 202.458 29.808 202.192 29.808ZM202.896 31.232V40H201.44V31.232H202.896ZM209.409 31.072C210.476 31.072 211.34 31.3973 212.001 32.048C212.663 32.688 212.993 33.616 212.993 34.832V40H211.553V35.04C211.553 34.1653 211.335 33.4987 210.897 33.04C210.46 32.5707 209.863 32.336 209.105 32.336C208.337 32.336 207.724 32.576 207.265 33.056C206.817 33.536 206.593 34.2347 206.593 35.152V40H205.137V31.232H206.593V32.48C206.881 32.032 207.271 31.6853 207.761 31.44C208.263 31.1947 208.812 31.072 209.409 31.072ZM214.588 35.6C214.588 34.6933 214.769 33.904 215.132 33.232C215.494 32.5493 215.996 32.0213 216.636 31.648C217.286 31.2747 218.028 31.088 218.86 31.088C219.937 31.088 220.822 31.3493 221.516 31.872C222.22 32.3947 222.684 33.12 222.908 34.048H221.34C221.19 33.5147 220.897 33.0933 220.46 32.784C220.033 32.4747 219.5 32.32 218.86 32.32C218.028 32.32 217.356 32.608 216.844 33.184C216.332 33.7493 216.076 34.5547 216.076 35.6C216.076 36.656 216.332 37.472 216.844 38.048C217.356 38.624 218.028 38.912 218.86 38.912C219.5 38.912 220.033 38.7627 220.46 38.464C220.886 38.1653 221.18 37.7387 221.34 37.184H222.908C222.673 38.08 222.204 38.8 221.5 39.344C220.796 39.8773 219.916 40.144 218.86 40.144C218.028 40.144 217.286 39.9573 216.636 39.584C215.996 39.2107 215.494 38.6827 215.132 38C214.769 37.3173 214.588 36.5173 214.588 35.6ZM232.61 35.28C232.61 35.5573 232.594 35.8507 232.562 36.16H225.554C225.608 37.024 225.901 37.7013 226.434 38.192C226.978 38.672 227.634 38.912 228.402 38.912C229.032 38.912 229.554 38.768 229.97 38.48C230.397 38.1813 230.696 37.7867 230.866 37.296H232.434C232.2 38.1387 231.73 38.8267 231.026 39.36C230.322 39.8827 229.448 40.144 228.402 40.144C227.57 40.144 226.824 39.9573 226.162 39.584C225.512 39.2107 225 38.6827 224.626 38C224.253 37.3067 224.066 36.5067 224.066 35.6C224.066 34.6933 224.248 33.8987 224.61 33.216C224.973 32.5333 225.48 32.0107 226.13 31.648C226.792 31.2747 227.549 31.088 228.402 31.088C229.234 31.088 229.97 31.2693 230.61 31.632C231.25 31.9947 231.741 32.496 232.082 33.136C232.434 33.7653 232.61 34.48 232.61 35.28ZM231.106 34.976C231.106 34.4213 230.984 33.9467 230.738 33.552C230.493 33.1467 230.157 32.8427 229.73 32.64C229.314 32.4267 228.85 32.32 228.338 32.32C227.602 32.32 226.973 32.5547 226.45 33.024C225.938 33.4933 225.645 34.144 225.57 34.976H231.106ZM245.87 31.232L240.59 44.128H239.086L240.814 39.904L237.278 31.232H238.894L241.646 38.336L244.366 31.232H245.87ZM250.918 40.144C250.096 40.144 249.35 39.9573 248.678 39.584C248.016 39.2107 247.494 38.6827 247.11 38C246.736 37.3067 246.55 36.5067 246.55 35.6C246.55 34.704 246.742 33.9147 247.126 33.232C247.52 32.5387 248.054 32.0107 248.726 31.648C249.398 31.2747 250.15 31.088 250.982 31.088C251.814 31.088 252.566 31.2747 253.238 31.648C253.91 32.0107 254.438 32.5333 254.822 33.216C255.216 33.8987 255.414 34.6933 255.414 35.6C255.414 36.5067 255.211 37.3067 254.806 38C254.411 38.6827 253.872 39.2107 253.19 39.584C252.507 39.9573 251.75 40.144 250.918 40.144ZM250.918 38.864C251.44 38.864 251.931 38.7413 252.39 38.496C252.848 38.2507 253.216 37.8827 253.494 37.392C253.782 36.9013 253.926 36.304 253.926 35.6C253.926 34.896 253.787 34.2987 253.51 33.808C253.232 33.3173 252.87 32.9547 252.422 32.72C251.974 32.4747 251.488 32.352 250.966 32.352C250.432 32.352 249.942 32.4747 249.494 32.72C249.056 32.9547 248.704 33.3173 248.438 33.808C248.171 34.2987 248.038 34.896 248.038 35.6C248.038 36.3147 248.166 36.9173 248.422 37.408C248.688 37.8987 249.04 38.2667 249.478 38.512C249.915 38.7467 250.395 38.864 250.918 38.864ZM264.864 31.232V40H263.408V38.704C263.131 39.152 262.741 39.504 262.24 39.76C261.749 40.0053 261.205 40.128 260.608 40.128C259.925 40.128 259.312 39.9893 258.768 39.712C258.224 39.424 257.792 38.9973 257.472 38.432C257.163 37.8667 257.008 37.1787 257.008 36.368V31.232H258.448V36.176C258.448 37.04 258.667 37.7067 259.104 38.176C259.541 38.6347 260.139 38.864 260.896 38.864C261.675 38.864 262.288 38.624 262.736 38.144C263.184 37.664 263.408 36.9653 263.408 36.048V31.232H264.864ZM267.306 28.848H268.922L267.386 32.48H266.362L267.306 28.848ZM273.606 38.656L276.326 31.232H277.878L274.438 40H272.742L269.302 31.232H270.87L273.606 38.656ZM287.071 35.28C287.071 35.5573 287.055 35.8507 287.023 36.16H280.015C280.068 37.024 280.362 37.7013 280.895 38.192C281.439 38.672 282.095 38.912 282.863 38.912C283.492 38.912 284.015 38.768 284.431 38.48C284.858 38.1813 285.156 37.7867 285.327 37.296H286.895C286.66 38.1387 286.191 38.8267 285.487 39.36C284.783 39.8827 283.908 40.144 282.863 40.144C282.031 40.144 281.284 39.9573 280.623 39.584C279.972 39.2107 279.46 38.6827 279.087 38C278.714 37.3067 278.527 36.5067 278.527 35.6C278.527 34.6933 278.708 33.8987 279.071 33.216C279.434 32.5333 279.94 32.0107 280.591 31.648C281.252 31.2747 282.01 31.088 282.863 31.088C283.695 31.088 284.431 31.2693 285.071 31.632C285.711 31.9947 286.202 32.496 286.543 33.136C286.895 33.7653 287.071 34.48 287.071 35.28ZM285.567 34.976C285.567 34.4213 285.444 33.9467 285.199 33.552C284.954 33.1467 284.618 32.8427 284.191 32.64C283.775 32.4267 283.311 32.32 282.799 32.32C282.063 32.32 281.434 32.5547 280.911 33.024C280.399 33.4933 280.106 34.144 280.031 34.976H285.567ZM303.323 31.072C304.005 31.072 304.613 31.216 305.147 31.504C305.68 31.7813 306.101 32.2027 306.411 32.768C306.72 33.3333 306.875 34.0213 306.875 34.832V40H305.435V35.04C305.435 34.1653 305.216 33.4987 304.779 33.04C304.352 32.5707 303.771 32.336 303.035 32.336C302.277 32.336 301.675 32.5813 301.227 33.072C300.779 33.552 300.555 34.2507 300.555 35.168V40H299.115V35.04C299.115 34.1653 298.896 33.4987 298.459 33.04C298.032 32.5707 297.451 32.336 296.715 32.336C295.957 32.336 295.355 32.5813 294.907 33.072C294.459 33.552 294.235 34.2507 294.235 35.168V40H292.779V31.232H294.235V32.496C294.523 32.0373 294.907 31.6853 295.387 31.44C295.877 31.1947 296.416 31.072 297.003 31.072C297.739 31.072 298.389 31.2373 298.955 31.568C299.52 31.8987 299.941 32.384 300.219 33.024C300.464 32.4053 300.869 31.9253 301.435 31.584C302 31.2427 302.629 31.072 303.323 31.072ZM308.479 35.584C308.479 34.688 308.66 33.904 309.023 33.232C309.386 32.5493 309.882 32.0213 310.511 31.648C311.151 31.2747 311.86 31.088 312.639 31.088C313.407 31.088 314.074 31.2533 314.639 31.584C315.204 31.9147 315.626 32.3307 315.903 32.832V31.232H317.375V40H315.903V38.368C315.615 38.88 315.183 39.3067 314.607 39.648C314.042 39.9787 313.38 40.144 312.623 40.144C311.844 40.144 311.14 39.952 310.511 39.568C309.882 39.184 309.386 38.6453 309.023 37.952C308.66 37.2587 308.479 36.4693 308.479 35.584ZM315.903 35.6C315.903 34.9387 315.77 34.3627 315.503 33.872C315.236 33.3813 314.874 33.008 314.415 32.752C313.967 32.4853 313.471 32.352 312.927 32.352C312.383 32.352 311.887 32.48 311.439 32.736C310.991 32.992 310.634 33.3653 310.367 33.856C310.1 34.3467 309.967 34.9227 309.967 35.584C309.967 36.256 310.1 36.8427 310.367 37.344C310.634 37.8347 310.991 38.2133 311.439 38.48C311.887 38.736 312.383 38.864 312.927 38.864C313.471 38.864 313.967 38.736 314.415 38.48C314.874 38.2133 315.236 37.8347 315.503 37.344C315.77 36.8427 315.903 36.2613 315.903 35.6ZM323.867 31.072C324.934 31.072 325.798 31.3973 326.459 32.048C327.121 32.688 327.451 33.616 327.451 34.832V40H326.011V35.04C326.011 34.1653 325.793 33.4987 325.355 33.04C324.918 32.5707 324.321 32.336 323.563 32.336C322.795 32.336 322.182 32.576 321.723 33.056C321.275 33.536 321.051 34.2347 321.051 35.152V40H319.595V31.232H321.051V32.48C321.339 32.032 321.729 31.6853 322.219 31.44C322.721 31.1947 323.27 31.072 323.867 31.072ZM329.046 35.584C329.046 34.688 329.227 33.904 329.59 33.232C329.952 32.5493 330.448 32.0213 331.078 31.648C331.718 31.2747 332.427 31.088 333.206 31.088C333.974 31.088 334.64 31.2533 335.206 31.584C335.771 31.9147 336.192 32.3307 336.47 32.832V31.232H337.942V40H336.47V38.368C336.182 38.88 335.75 39.3067 335.174 39.648C334.608 39.9787 333.947 40.144 333.19 40.144C332.411 40.144 331.707 39.952 331.078 39.568C330.448 39.184 329.952 38.6453 329.59 37.952C329.227 37.2587 329.046 36.4693 329.046 35.584ZM336.47 35.6C336.47 34.9387 336.336 34.3627 336.07 33.872C335.803 33.3813 335.44 33.008 334.982 32.752C334.534 32.4853 334.038 32.352 333.494 32.352C332.95 32.352 332.454 32.48 332.006 32.736C331.558 32.992 331.2 33.3653 330.934 33.856C330.667 34.3467 330.534 34.9227 330.534 35.584C330.534 36.256 330.667 36.8427 330.934 37.344C331.2 37.8347 331.558 38.2133 332.006 38.48C332.454 38.736 332.95 38.864 333.494 38.864C334.038 38.864 334.534 38.736 334.982 38.48C335.44 38.2133 335.803 37.8347 336.07 37.344C336.336 36.8427 336.47 36.2613 336.47 35.6ZM343.778 31.088C344.536 31.088 345.197 31.2533 345.762 31.584C346.338 31.9147 346.765 32.3307 347.042 32.832V31.232H348.514V40.192C348.514 40.992 348.344 41.7013 348.002 42.32C347.661 42.9493 347.17 43.44 346.53 43.792C345.901 44.144 345.165 44.32 344.322 44.32C343.17 44.32 342.21 44.048 341.442 43.504C340.674 42.96 340.221 42.2187 340.082 41.28H341.522C341.682 41.8133 342.013 42.24 342.514 42.56C343.016 42.8907 343.618 43.056 344.322 43.056C345.122 43.056 345.773 42.8053 346.274 42.304C346.786 41.8027 347.042 41.0987 347.042 40.192V38.352C346.754 38.864 346.328 39.2907 345.762 39.632C345.197 39.9733 344.536 40.144 343.778 40.144C343 40.144 342.29 39.952 341.65 39.568C341.021 39.184 340.525 38.6453 340.162 37.952C339.8 37.2587 339.618 36.4693 339.618 35.584C339.618 34.688 339.8 33.904 340.162 33.232C340.525 32.5493 341.021 32.0213 341.65 31.648C342.29 31.2747 343 31.088 343.778 31.088ZM347.042 35.6C347.042 34.9387 346.909 34.3627 346.642 33.872C346.376 33.3813 346.013 33.008 345.554 32.752C345.106 32.4853 344.61 32.352 344.066 32.352C343.522 32.352 343.026 32.48 342.578 32.736C342.13 32.992 341.773 33.3653 341.506 33.856C341.24 34.3467 341.106 34.9227 341.106 35.584C341.106 36.256 341.24 36.8427 341.506 37.344C341.773 37.8347 342.13 38.2133 342.578 38.48C343.026 38.736 343.522 38.864 344.066 38.864C344.61 38.864 345.106 38.736 345.554 38.48C346.013 38.2133 346.376 37.8347 346.642 37.344C346.909 36.8427 347.042 36.2613 347.042 35.6ZM358.735 35.28C358.735 35.5573 358.719 35.8507 358.687 36.16H351.679C351.732 37.024 352.025 37.7013 352.559 38.192C353.103 38.672 353.759 38.912 354.527 38.912C355.156 38.912 355.679 38.768 356.095 38.48C356.521 38.1813 356.82 37.7867 356.991 37.296H358.559C358.324 38.1387 357.855 38.8267 357.151 39.36C356.447 39.8827 355.572 40.144 354.527 40.144C353.695 40.144 352.948 39.9573 352.287 39.584C351.636 39.2107 351.124 38.6827 350.751 38C350.377 37.3067 350.191 36.5067 350.191 35.6C350.191 34.6933 350.372 33.8987 350.735 33.216C351.097 32.5333 351.604 32.0107 352.255 31.648C352.916 31.2747 353.673 31.088 354.527 31.088C355.359 31.088 356.095 31.2693 356.735 31.632C357.375 31.9947 357.865 32.496 358.207 33.136C358.559 33.7653 358.735 34.48 358.735 35.28ZM357.231 34.976C357.231 34.4213 357.108 33.9467 356.863 33.552C356.617 33.1467 356.281 32.8427 355.855 32.64C355.439 32.4267 354.975 32.32 354.463 32.32C353.727 32.32 353.097 32.5547 352.575 33.024C352.063 33.4933 351.769 34.144 351.695 34.976H357.231ZM359.873 35.584C359.873 34.688 360.054 33.904 360.417 33.232C360.779 32.5493 361.275 32.0213 361.905 31.648C362.545 31.2747 363.259 31.088 364.049 31.088C364.731 31.088 365.366 31.248 365.953 31.568C366.539 31.8773 366.987 32.288 367.297 32.8V28.16H368.769V40H367.297V38.352C367.009 38.8747 366.582 39.3067 366.017 39.648C365.451 39.9787 364.79 40.144 364.033 40.144C363.254 40.144 362.545 39.952 361.905 39.568C361.275 39.184 360.779 38.6453 360.417 37.952C360.054 37.2587 359.873 36.4693 359.873 35.584ZM367.297 35.6C367.297 34.9387 367.163 34.3627 366.897 33.872C366.63 33.3813 366.267 33.008 365.809 32.752C365.361 32.4853 364.865 32.352 364.321 32.352C363.777 32.352 363.281 32.48 362.833 32.736C362.385 32.992 362.027 33.3653 361.761 33.856C361.494 34.3467 361.361 34.9227 361.361 35.584C361.361 36.256 361.494 36.8427 361.761 37.344C362.027 37.8347 362.385 38.2133 362.833 38.48C363.281 38.736 363.777 38.864 364.321 38.864C364.865 38.864 365.361 38.736 365.809 38.48C366.267 38.2133 366.63 37.8347 366.897 37.344C367.163 36.8427 367.297 36.2613 367.297 35.6ZM376.791 32.432V37.6C376.791 38.0267 376.881 38.3307 377.063 38.512C377.244 38.6827 377.559 38.768 378.007 38.768H379.079V40H377.767C376.956 40 376.348 39.8133 375.943 39.44C375.537 39.0667 375.335 38.4533 375.335 37.6V32.432H374.199V31.232H375.335V29.024H376.791V31.232H379.079V32.432H376.791ZM384.427 40.144C383.606 40.144 382.859 39.9573 382.187 39.584C381.526 39.2107 381.003 38.6827 380.619 38C380.246 37.3067 380.059 36.5067 380.059 35.6C380.059 34.704 380.251 33.9147 380.635 33.232C381.03 32.5387 381.563 32.0107 382.235 31.648C382.907 31.2747 383.659 31.088 384.491 31.088C385.323 31.088 386.075 31.2747 386.747 31.648C387.419 32.0107 387.947 32.5333 388.331 33.216C388.726 33.8987 388.923 34.6933 388.923 35.6C388.923 36.5067 388.72 37.3067 388.315 38C387.92 38.6827 387.382 39.2107 386.699 39.584C386.016 39.9573 385.259 40.144 384.427 40.144ZM384.427 38.864C384.95 38.864 385.44 38.7413 385.899 38.496C386.358 38.2507 386.726 37.8827 387.003 37.392C387.291 36.9013 387.435 36.304 387.435 35.6C387.435 34.896 387.296 34.2987 387.019 33.808C386.742 33.3173 386.379 32.9547 385.931 32.72C385.483 32.4747 384.998 32.352 384.475 32.352C383.942 32.352 383.451 32.4747 383.003 32.72C382.566 32.9547 382.214 33.3173 381.947 33.808C381.68 34.2987 381.547 34.896 381.547 35.6C381.547 36.3147 381.675 36.9173 381.931 37.408C382.198 37.8987 382.55 38.2667 382.987 38.512C383.424 38.7467 383.904 38.864 384.427 38.864ZM398.239 31.088C398.996 31.088 399.658 31.2533 400.223 31.584C400.799 31.9147 401.226 32.3307 401.503 32.832V31.232H402.975V40.192C402.975 40.992 402.804 41.7013 402.463 42.32C402.122 42.9493 401.631 43.44 400.991 43.792C400.362 44.144 399.626 44.32 398.783 44.32C397.631 44.32 396.671 44.048 395.903 43.504C395.135 42.96 394.682 42.2187 394.543 41.28H395.983C396.143 41.8133 396.474 42.24 396.975 42.56C397.476 42.8907 398.079 43.056 398.783 43.056C399.583 43.056 400.234 42.8053 400.735 42.304C401.247 41.8027 401.503 41.0987 401.503 40.192V38.352C401.215 38.864 400.788 39.2907 400.223 39.632C399.658 39.9733 398.996 40.144 398.239 40.144C397.46 40.144 396.751 39.952 396.111 39.568C395.482 39.184 394.986 38.6453 394.623 37.952C394.26 37.2587 394.079 36.4693 394.079 35.584C394.079 34.688 394.26 33.904 394.623 33.232C394.986 32.5493 395.482 32.0213 396.111 31.648C396.751 31.2747 397.46 31.088 398.239 31.088ZM401.503 35.6C401.503 34.9387 401.37 34.3627 401.103 33.872C400.836 33.3813 400.474 33.008 400.015 32.752C399.567 32.4853 399.071 32.352 398.527 32.352C397.983 32.352 397.487 32.48 397.039 32.736C396.591 32.992 396.234 33.3653 395.967 33.856C395.7 34.3467 395.567 34.9227 395.567 35.584C395.567 36.256 395.7 36.8427 395.967 37.344C396.234 37.8347 396.591 38.2133 397.039 38.48C397.487 38.736 397.983 38.864 398.527 38.864C399.071 38.864 399.567 38.736 400.015 38.48C400.474 38.2133 400.836 37.8347 401.103 37.344C401.37 36.8427 401.503 36.2613 401.503 35.6ZM413.195 35.28C413.195 35.5573 413.179 35.8507 413.147 36.16H406.139C406.193 37.024 406.486 37.7013 407.019 38.192C407.563 38.672 408.219 38.912 408.987 38.912C409.617 38.912 410.139 38.768 410.555 38.48C410.982 38.1813 411.281 37.7867 411.451 37.296H413.019C412.785 38.1387 412.315 38.8267 411.611 39.36C410.907 39.8827 410.033 40.144 408.987 40.144C408.155 40.144 407.409 39.9573 406.747 39.584C406.097 39.2107 405.585 38.6827 405.211 38C404.838 37.3067 404.651 36.5067 404.651 35.6C404.651 34.6933 404.833 33.8987 405.195 33.216C405.558 32.5333 406.065 32.0107 406.715 31.648C407.377 31.2747 408.134 31.088 408.987 31.088C409.819 31.088 410.555 31.2693 411.195 31.632C411.835 31.9947 412.326 32.496 412.667 33.136C413.019 33.7653 413.195 34.48 413.195 35.28ZM411.691 34.976C411.691 34.4213 411.569 33.9467 411.323 33.552C411.078 33.1467 410.742 32.8427 410.315 32.64C409.899 32.4267 409.435 32.32 408.923 32.32C408.187 32.32 407.558 32.5547 407.035 33.024C406.523 33.4933 406.23 34.144 406.155 34.976H411.691ZM416.653 32.432V37.6C416.653 38.0267 416.744 38.3307 416.925 38.512C417.107 38.6827 417.421 38.768 417.869 38.768H418.941V40H417.629C416.819 40 416.211 39.8133 415.805 39.44C415.4 39.0667 415.197 38.4533 415.197 37.6V32.432H414.061V31.232H415.197V29.024H416.653V31.232H418.941V32.432H416.653ZM426.267 32.432V37.6C426.267 38.0267 426.358 38.3307 426.539 38.512C426.72 38.6827 427.035 38.768 427.483 38.768H428.555V40H427.243C426.432 40 425.824 39.8133 425.419 39.44C425.014 39.0667 424.811 38.4533 424.811 37.6V32.432H423.675V31.232H424.811V29.024H426.267V31.232H428.555V32.432H426.267ZM434.431 31.072C435.093 31.072 435.69 31.216 436.223 31.504C436.757 31.7813 437.173 32.2027 437.471 32.768C437.781 33.3333 437.935 34.0213 437.935 34.832V40H436.495V35.04C436.495 34.1653 436.277 33.4987 435.839 33.04C435.402 32.5707 434.805 32.336 434.047 32.336C433.279 32.336 432.666 32.576 432.207 33.056C431.759 33.536 431.535 34.2347 431.535 35.152V40H430.079V28.16H431.535V32.48C431.823 32.032 432.218 31.6853 432.719 31.44C433.231 31.1947 433.802 31.072 434.431 31.072ZM440.826 29.808C440.548 29.808 440.314 29.712 440.122 29.52C439.93 29.328 439.834 29.0933 439.834 28.816C439.834 28.5387 439.93 28.304 440.122 28.112C440.314 27.92 440.548 27.824 440.826 27.824C441.092 27.824 441.316 27.92 441.498 28.112C441.69 28.304 441.786 28.5387 441.786 28.816C441.786 29.0933 441.69 29.328 441.498 29.52C441.316 29.712 441.092 29.808 440.826 29.808ZM441.53 31.232V40H440.074V31.232H441.53ZM446.875 40.144C446.203 40.144 445.6 40.032 445.067 39.808C444.534 39.5733 444.112 39.2533 443.803 38.848C443.494 38.432 443.323 37.9573 443.291 37.424H444.795C444.838 37.8613 445.04 38.2187 445.403 38.496C445.776 38.7733 446.262 38.912 446.859 38.912C447.414 38.912 447.851 38.7893 448.171 38.544C448.491 38.2987 448.651 37.9893 448.651 37.616C448.651 37.232 448.48 36.9493 448.139 36.768C447.798 36.576 447.27 36.3893 446.555 36.208C445.904 36.0373 445.371 35.8667 444.955 35.696C444.55 35.5147 444.198 35.2533 443.899 34.912C443.611 34.56 443.467 34.1013 443.467 33.536C443.467 33.088 443.6 32.6773 443.867 32.304C444.134 31.9307 444.512 31.6373 445.003 31.424C445.494 31.2 446.054 31.088 446.683 31.088C447.654 31.088 448.438 31.3333 449.035 31.824C449.632 32.3147 449.952 32.9867 449.995 33.84H448.539C448.507 33.3813 448.32 33.0133 447.979 32.736C447.648 32.4587 447.2 32.32 446.635 32.32C446.112 32.32 445.696 32.432 445.387 32.656C445.078 32.88 444.923 33.1733 444.923 33.536C444.923 33.824 445.014 34.064 445.195 34.256C445.387 34.4373 445.622 34.5867 445.899 34.704C446.187 34.8107 446.582 34.9333 447.083 35.072C447.712 35.2427 448.224 35.4133 448.619 35.584C449.014 35.744 449.35 35.9893 449.627 36.32C449.915 36.6507 450.064 37.0827 450.075 37.616C450.075 38.096 449.942 38.528 449.675 38.912C449.408 39.296 449.03 39.6 448.539 39.824C448.059 40.0373 447.504 40.144 446.875 40.144ZM459.484 32.432H457.644V40H456.188V32.432H455.052V31.232H456.188V30.608C456.188 29.6267 456.439 28.912 456.94 28.464C457.452 28.0053 458.268 27.776 459.388 27.776V28.992C458.748 28.992 458.295 29.12 458.028 29.376C457.772 29.6213 457.644 30.032 457.644 30.608V31.232H459.484V32.432ZM460.398 35.584C460.398 34.688 460.579 33.904 460.942 33.232C461.304 32.5493 461.8 32.0213 462.43 31.648C463.07 31.2747 463.779 31.088 464.558 31.088C465.326 31.088 465.992 31.2533 466.558 31.584C467.123 31.9147 467.544 32.3307 467.822 32.832V31.232H469.294V40H467.822V38.368C467.534 38.88 467.102 39.3067 466.526 39.648C465.96 39.9787 465.299 40.144 464.542 40.144C463.763 40.144 463.059 39.952 462.43 39.568C461.8 39.184 461.304 38.6453 460.942 37.952C460.579 37.2587 460.398 36.4693 460.398 35.584ZM467.822 35.6C467.822 34.9387 467.688 34.3627 467.422 33.872C467.155 33.3813 466.792 33.008 466.334 32.752C465.886 32.4853 465.39 32.352 464.846 32.352C464.302 32.352 463.806 32.48 463.358 32.736C462.91 32.992 462.552 33.3653 462.286 33.856C462.019 34.3467 461.886 34.9227 461.886 35.584C461.886 36.256 462.019 36.8427 462.286 37.344C462.552 37.8347 462.91 38.2133 463.358 38.48C463.806 38.736 464.302 38.864 464.846 38.864C465.39 38.864 465.886 38.736 466.334 38.48C466.792 38.2133 467.155 37.8347 467.422 37.344C467.688 36.8427 467.822 36.2613 467.822 35.6ZM472.97 32.656C473.226 32.1547 473.589 31.7653 474.058 31.488C474.538 31.2107 475.12 31.072 475.802 31.072V32.576H475.418C473.786 32.576 472.97 33.4613 472.97 35.232V40H471.514V31.232H472.97V32.656ZM478.747 37.984L476.955 42.288H475.979L477.147 37.984H478.747ZM198.021 44.848V56H196.565V44.848H198.021ZM200.486 44.848H202.102L200.566 48.48H199.542L200.486 44.848ZM214.066 47.072C214.749 47.072 215.357 47.216 215.89 47.504C216.424 47.7813 216.845 48.2027 217.154 48.768C217.464 49.3333 217.618 50.0213 217.618 50.832V56H216.178V51.04C216.178 50.1653 215.96 49.4987 215.522 49.04C215.096 48.5707 214.514 48.336 213.778 48.336C213.021 48.336 212.418 48.5813 211.97 49.072C211.522 49.552 211.298 50.2507 211.298 51.168V56H209.858V51.04C209.858 50.1653 209.64 49.4987 209.202 49.04C208.776 48.5707 208.194 48.336 207.458 48.336C206.701 48.336 206.098 48.5813 205.65 49.072C205.202 49.552 204.978 50.2507 204.978 51.168V56H203.522V47.232H204.978V48.496C205.266 48.0373 205.65 47.6853 206.13 47.44C206.621 47.1947 207.16 47.072 207.746 47.072C208.482 47.072 209.133 47.2373 209.698 47.568C210.264 47.8987 210.685 48.384 210.962 49.024C211.208 48.4053 211.613 47.9253 212.178 47.584C212.744 47.2427 213.373 47.072 214.066 47.072ZM227.408 47.088C228.166 47.088 228.827 47.2533 229.392 47.584C229.968 47.9147 230.395 48.3307 230.672 48.832V47.232H232.144V56.192C232.144 56.992 231.974 57.7013 231.632 58.32C231.291 58.9493 230.8 59.44 230.16 59.792C229.531 60.144 228.795 60.32 227.952 60.32C226.8 60.32 225.84 60.048 225.072 59.504C224.304 58.96 223.851 58.2187 223.712 57.28H225.152C225.312 57.8133 225.643 58.24 226.144 58.56C226.646 58.8907 227.248 59.056 227.952 59.056C228.752 59.056 229.403 58.8053 229.904 58.304C230.416 57.8027 230.672 57.0987 230.672 56.192V54.352C230.384 54.864 229.958 55.2907 229.392 55.632C228.827 55.9733 228.166 56.144 227.408 56.144C226.63 56.144 225.92 55.952 225.28 55.568C224.651 55.184 224.155 54.6453 223.792 53.952C223.43 53.2587 223.248 52.4693 223.248 51.584C223.248 50.688 223.43 49.904 223.792 49.232C224.155 48.5493 224.651 48.0213 225.28 47.648C225.92 47.2747 226.63 47.088 227.408 47.088ZM230.672 51.6C230.672 50.9387 230.539 50.3627 230.272 49.872C230.006 49.3813 229.643 49.008 229.184 48.752C228.736 48.4853 228.24 48.352 227.696 48.352C227.152 48.352 226.656 48.48 226.208 48.736C225.76 48.992 225.403 49.3653 225.136 49.856C224.87 50.3467 224.736 50.9227 224.736 51.584C224.736 52.256 224.87 52.8427 225.136 53.344C225.403 53.8347 225.76 54.2133 226.208 54.48C226.656 54.736 227.152 54.864 227.696 54.864C228.24 54.864 228.736 54.736 229.184 54.48C229.643 54.2133 230.006 53.8347 230.272 53.344C230.539 52.8427 230.672 52.2613 230.672 51.6ZM238.189 56.144C237.367 56.144 236.621 55.9573 235.949 55.584C235.287 55.2107 234.765 54.6827 234.381 54C234.007 53.3067 233.821 52.5067 233.821 51.6C233.821 50.704 234.013 49.9147 234.397 49.232C234.791 48.5387 235.325 48.0107 235.997 47.648C236.669 47.2747 237.421 47.088 238.253 47.088C239.085 47.088 239.837 47.2747 240.509 47.648C241.181 48.0107 241.709 48.5333 242.093 49.216C242.487 49.8987 242.685 50.6933 242.685 51.6C242.685 52.5067 242.482 53.3067 242.077 54C241.682 54.6827 241.143 55.2107 240.461 55.584C239.778 55.9573 239.021 56.144 238.189 56.144ZM238.189 54.864C238.711 54.864 239.202 54.7413 239.661 54.496C240.119 54.2507 240.487 53.8827 240.765 53.392C241.053 52.9013 241.197 52.304 241.197 51.6C241.197 50.896 241.058 50.2987 240.781 49.808C240.503 49.3173 240.141 48.9547 239.693 48.72C239.245 48.4747 238.759 48.352 238.237 48.352C237.703 48.352 237.213 48.4747 236.765 48.72C236.327 48.9547 235.975 49.3173 235.709 49.808C235.442 50.2987 235.309 50.896 235.309 51.6C235.309 52.3147 235.437 52.9173 235.693 53.408C235.959 53.8987 236.311 54.2667 236.749 54.512C237.186 54.7467 237.666 54.864 238.189 54.864ZM248.631 47.072C249.698 47.072 250.562 47.3973 251.223 48.048C251.885 48.688 252.215 49.616 252.215 50.832V56H250.775V51.04C250.775 50.1653 250.557 49.4987 250.119 49.04C249.682 48.5707 249.085 48.336 248.327 48.336C247.559 48.336 246.946 48.576 246.487 49.056C246.039 49.536 245.815 50.2347 245.815 51.152V56H244.359V47.232H245.815V48.48C246.103 48.032 246.493 47.6853 246.983 47.44C247.485 47.1947 248.034 47.072 248.631 47.072ZM258.626 47.072C259.692 47.072 260.556 47.3973 261.218 48.048C261.879 48.688 262.21 49.616 262.21 50.832V56H260.77V51.04C260.77 50.1653 260.551 49.4987 260.114 49.04C259.676 48.5707 259.079 48.336 258.322 48.336C257.554 48.336 256.94 48.576 256.482 49.056C256.034 49.536 255.81 50.2347 255.81 51.152V56H254.354V47.232H255.81V48.48C256.098 48.032 256.487 47.6853 256.978 47.44C257.479 47.1947 258.028 47.072 258.626 47.072ZM263.804 51.584C263.804 50.688 263.985 49.904 264.348 49.232C264.711 48.5493 265.207 48.0213 265.836 47.648C266.476 47.2747 267.185 47.088 267.964 47.088C268.732 47.088 269.399 47.2533 269.964 47.584C270.529 47.9147 270.951 48.3307 271.228 48.832V47.232H272.7V56H271.228V54.368C270.94 54.88 270.508 55.3067 269.932 55.648C269.367 55.9787 268.705 56.144 267.948 56.144C267.169 56.144 266.465 55.952 265.836 55.568C265.207 55.184 264.711 54.6453 264.348 53.952C263.985 53.2587 263.804 52.4693 263.804 51.584ZM271.228 51.6C271.228 50.9387 271.095 50.3627 270.828 49.872C270.561 49.3813 270.199 49.008 269.74 48.752C269.292 48.4853 268.796 48.352 268.252 48.352C267.708 48.352 267.212 48.48 266.764 48.736C266.316 48.992 265.959 49.3653 265.692 49.856C265.425 50.3467 265.292 50.9227 265.292 51.584C265.292 52.256 265.425 52.8427 265.692 53.344C265.959 53.8347 266.316 54.2133 266.764 54.48C267.212 54.736 267.708 54.864 268.252 54.864C268.796 54.864 269.292 54.736 269.74 54.48C270.199 54.2133 270.561 53.8347 270.828 53.344C271.095 52.8427 271.228 52.2613 271.228 51.6ZM280.402 44.16V56H278.946V44.16H280.402ZM290.644 51.28C290.644 51.5573 290.628 51.8507 290.596 52.16H283.588C283.641 53.024 283.934 53.7013 284.468 54.192C285.012 54.672 285.668 54.912 286.436 54.912C287.065 54.912 287.588 54.768 288.004 54.48C288.43 54.1813 288.729 53.7867 288.9 53.296H290.468C290.233 54.1387 289.764 54.8267 289.06 55.36C288.356 55.8827 287.481 56.144 286.436 56.144C285.604 56.144 284.857 55.9573 284.196 55.584C283.545 55.2107 283.033 54.6827 282.66 54C282.286 53.3067 282.1 52.5067 282.1 51.6C282.1 50.6933 282.281 49.8987 282.644 49.216C283.006 48.5333 283.513 48.0107 284.164 47.648C284.825 47.2747 285.582 47.088 286.436 47.088C287.268 47.088 288.004 47.2693 288.644 47.632C289.284 47.9947 289.774 48.496 290.116 49.136C290.468 49.7653 290.644 50.48 290.644 51.28ZM289.14 50.976C289.14 50.4213 289.017 49.9467 288.772 49.552C288.526 49.1467 288.19 48.8427 287.764 48.64C287.348 48.4267 286.884 48.32 286.372 48.32C285.636 48.32 285.006 48.5547 284.484 49.024C283.972 49.4933 283.678 50.144 283.604 50.976H289.14ZM294.101 48.432V53.6C294.101 54.0267 294.192 54.3307 294.373 54.512C294.555 54.6827 294.869 54.768 295.317 54.768H296.389V56H295.077C294.267 56 293.659 55.8133 293.253 55.44C292.848 55.0667 292.645 54.4533 292.645 53.6V48.432H291.509V47.232H292.645V45.024H294.101V47.232H296.389V48.432H294.101ZM309.491 47.232L304.211 60.128H302.707L304.435 55.904L300.899 47.232H302.515L305.267 54.336L307.987 47.232H309.491ZM314.539 56.144C313.717 56.144 312.971 55.9573 312.299 55.584C311.637 55.2107 311.115 54.6827 310.731 54C310.357 53.3067 310.171 52.5067 310.171 51.6C310.171 50.704 310.363 49.9147 310.747 49.232C311.141 48.5387 311.675 48.0107 312.347 47.648C313.019 47.2747 313.771 47.088 314.603 47.088C315.435 47.088 316.187 47.2747 316.859 47.648C317.531 48.0107 318.059 48.5333 318.443 49.216C318.837 49.8987 319.035 50.6933 319.035 51.6C319.035 52.5067 318.832 53.3067 318.427 54C318.032 54.6827 317.493 55.2107 316.811 55.584C316.128 55.9573 315.371 56.144 314.539 56.144ZM314.539 54.864C315.061 54.864 315.552 54.7413 316.011 54.496C316.469 54.2507 316.837 53.8827 317.115 53.392C317.403 52.9013 317.547 52.304 317.547 51.6C317.547 50.896 317.408 50.2987 317.131 49.808C316.853 49.3173 316.491 48.9547 316.043 48.72C315.595 48.4747 315.109 48.352 314.587 48.352C314.053 48.352 313.563 48.4747 313.115 48.72C312.677 48.9547 312.325 49.3173 312.059 49.808C311.792 50.2987 311.659 50.896 311.659 51.6C311.659 52.3147 311.787 52.9173 312.043 53.408C312.309 53.8987 312.661 54.2667 313.099 54.512C313.536 54.7467 314.016 54.864 314.539 54.864ZM328.485 47.232V56H327.029V54.704C326.752 55.152 326.363 55.504 325.861 55.76C325.371 56.0053 324.827 56.128 324.229 56.128C323.547 56.128 322.933 55.9893 322.389 55.712C321.845 55.424 321.413 54.9973 321.093 54.432C320.784 53.8667 320.629 53.1787 320.629 52.368V47.232H322.069V52.176C322.069 53.04 322.288 53.7067 322.725 54.176C323.163 54.6347 323.76 54.864 324.517 54.864C325.296 54.864 325.909 54.624 326.357 54.144C326.805 53.664 327.029 52.9653 327.029 52.048V47.232H328.485ZM338.553 56.144C337.732 56.144 336.985 55.9573 336.313 55.584C335.652 55.2107 335.129 54.6827 334.745 54C334.372 53.3067 334.185 52.5067 334.185 51.6C334.185 50.704 334.377 49.9147 334.761 49.232C335.156 48.5387 335.689 48.0107 336.361 47.648C337.033 47.2747 337.785 47.088 338.617 47.088C339.449 47.088 340.201 47.2747 340.873 47.648C341.545 48.0107 342.073 48.5333 342.457 49.216C342.852 49.8987 343.049 50.6933 343.049 51.6C343.049 52.5067 342.847 53.3067 342.441 54C342.047 54.6827 341.508 55.2107 340.825 55.584C340.143 55.9573 339.385 56.144 338.553 56.144ZM338.553 54.864C339.076 54.864 339.567 54.7413 340.025 54.496C340.484 54.2507 340.852 53.8827 341.129 53.392C341.417 52.9013 341.561 52.304 341.561 51.6C341.561 50.896 341.423 50.2987 341.145 49.808C340.868 49.3173 340.505 48.9547 340.057 48.72C339.609 48.4747 339.124 48.352 338.601 48.352C338.068 48.352 337.577 48.4747 337.129 48.72C336.692 48.9547 336.34 49.3173 336.073 49.808C335.807 50.2987 335.673 50.896 335.673 51.6C335.673 52.3147 335.801 52.9173 336.057 53.408C336.324 53.8987 336.676 54.2667 337.113 54.512C337.551 54.7467 338.031 54.864 338.553 54.864ZM348.996 47.072C350.062 47.072 350.926 47.3973 351.588 48.048C352.249 48.688 352.58 49.616 352.58 50.832V56H351.14V51.04C351.14 50.1653 350.921 49.4987 350.484 49.04C350.046 48.5707 349.449 48.336 348.692 48.336C347.924 48.336 347.31 48.576 346.852 49.056C346.404 49.536 346.18 50.2347 346.18 51.152V56H344.724V47.232H346.18V48.48C346.468 48.032 346.857 47.6853 347.348 47.44C347.849 47.1947 348.398 47.072 348.996 47.072ZM356.494 48.432V53.6C356.494 54.0267 356.585 54.3307 356.766 54.512C356.947 54.6827 357.262 54.768 357.71 54.768H358.782V56H357.47C356.659 56 356.051 55.8133 355.646 55.44C355.241 55.0667 355.038 54.4533 355.038 53.6V48.432H353.902V47.232H355.038V45.024H356.494V47.232H358.782V48.432H356.494ZM364.13 56.144C363.309 56.144 362.562 55.9573 361.89 55.584C361.229 55.2107 360.706 54.6827 360.322 54C359.949 53.3067 359.762 52.5067 359.762 51.6C359.762 50.704 359.954 49.9147 360.338 49.232C360.733 48.5387 361.266 48.0107 361.938 47.648C362.61 47.2747 363.362 47.088 364.194 47.088C365.026 47.088 365.778 47.2747 366.45 47.648C367.122 48.0107 367.65 48.5333 368.034 49.216C368.429 49.8987 368.626 50.6933 368.626 51.6C368.626 52.5067 368.423 53.3067 368.018 54C367.623 54.6827 367.085 55.2107 366.402 55.584C365.719 55.9573 364.962 56.144 364.13 56.144ZM364.13 54.864C364.653 54.864 365.143 54.7413 365.602 54.496C366.061 54.2507 366.429 53.8827 366.706 53.392C366.994 52.9013 367.138 52.304 367.138 51.6C367.138 50.896 366.999 50.2987 366.722 49.808C366.445 49.3173 366.082 48.9547 365.634 48.72C365.186 48.4747 364.701 48.352 364.178 48.352C363.645 48.352 363.154 48.4747 362.706 48.72C362.269 48.9547 361.917 49.3173 361.65 49.808C361.383 50.2987 361.25 50.896 361.25 51.6C361.25 52.3147 361.378 52.9173 361.634 53.408C361.901 53.8987 362.253 54.2667 362.69 54.512C363.127 54.7467 363.607 54.864 364.13 54.864ZM377.43 56.144C376.758 56.144 376.155 56.032 375.622 55.808C375.089 55.5733 374.667 55.2533 374.358 54.848C374.049 54.432 373.878 53.9573 373.846 53.424H375.35C375.393 53.8613 375.595 54.2187 375.958 54.496C376.331 54.7733 376.817 54.912 377.414 54.912C377.969 54.912 378.406 54.7893 378.726 54.544C379.046 54.2987 379.206 53.9893 379.206 53.616C379.206 53.232 379.035 52.9493 378.694 52.768C378.353 52.576 377.825 52.3893 377.11 52.208C376.459 52.0373 375.926 51.8667 375.51 51.696C375.105 51.5147 374.753 51.2533 374.454 50.912C374.166 50.56 374.022 50.1013 374.022 49.536C374.022 49.088 374.155 48.6773 374.422 48.304C374.689 47.9307 375.067 47.6373 375.558 47.424C376.049 47.2 376.609 47.088 377.238 47.088C378.209 47.088 378.993 47.3333 379.59 47.824C380.187 48.3147 380.507 48.9867 380.55 49.84H379.094C379.062 49.3813 378.875 49.0133 378.534 48.736C378.203 48.4587 377.755 48.32 377.19 48.32C376.667 48.32 376.251 48.432 375.942 48.656C375.633 48.88 375.478 49.1733 375.478 49.536C375.478 49.824 375.569 50.064 375.75 50.256C375.942 50.4373 376.177 50.5867 376.454 50.704C376.742 50.8107 377.137 50.9333 377.638 51.072C378.267 51.2427 378.779 51.4133 379.174 51.584C379.569 51.744 379.905 51.9893 380.182 52.32C380.47 52.6507 380.619 53.0827 380.63 53.616C380.63 54.096 380.497 54.528 380.23 54.912C379.963 55.296 379.585 55.6 379.094 55.824C378.614 56.0373 378.059 56.144 377.43 56.144ZM386.269 56.144C385.448 56.144 384.701 55.9573 384.029 55.584C383.368 55.2107 382.845 54.6827 382.461 54C382.088 53.3067 381.901 52.5067 381.901 51.6C381.901 50.704 382.093 49.9147 382.477 49.232C382.872 48.5387 383.405 48.0107 384.077 47.648C384.749 47.2747 385.501 47.088 386.333 47.088C387.165 47.088 387.917 47.2747 388.589 47.648C389.261 48.0107 389.789 48.5333 390.173 49.216C390.568 49.8987 390.765 50.6933 390.765 51.6C390.765 52.5067 390.563 53.3067 390.157 54C389.763 54.6827 389.224 55.2107 388.541 55.584C387.859 55.9573 387.101 56.144 386.269 56.144ZM386.269 54.864C386.792 54.864 387.283 54.7413 387.741 54.496C388.2 54.2507 388.568 53.8827 388.845 53.392C389.133 52.9013 389.277 52.304 389.277 51.6C389.277 50.896 389.139 50.2987 388.861 49.808C388.584 49.3173 388.221 48.9547 387.773 48.72C387.325 48.4747 386.84 48.352 386.317 48.352C385.784 48.352 385.293 48.4747 384.845 48.72C384.408 48.9547 384.056 49.3173 383.789 49.808C383.523 50.2987 383.389 50.896 383.389 51.6C383.389 52.3147 383.517 52.9173 383.773 53.408C384.04 53.8987 384.392 54.2667 384.829 54.512C385.267 54.7467 385.747 54.864 386.269 54.864ZM402.984 47.072C403.666 47.072 404.274 47.216 404.808 47.504C405.341 47.7813 405.762 48.2027 406.072 48.768C406.381 49.3333 406.536 50.0213 406.536 50.832V56H405.096V51.04C405.096 50.1653 404.877 49.4987 404.44 49.04C404.013 48.5707 403.432 48.336 402.696 48.336C401.938 48.336 401.336 48.5813 400.888 49.072C400.44 49.552 400.216 50.2507 400.216 51.168V56H398.776V51.04C398.776 50.1653 398.557 49.4987 398.12 49.04C397.693 48.5707 397.112 48.336 396.376 48.336C395.618 48.336 395.016 48.5813 394.568 49.072C394.12 49.552 393.896 50.2507 393.896 51.168V56H392.44V47.232H393.896V48.496C394.184 48.0373 394.568 47.6853 395.048 47.44C395.538 47.1947 396.077 47.072 396.664 47.072C397.4 47.072 398.05 47.2373 398.616 47.568C399.181 47.8987 399.602 48.384 399.88 49.024C400.125 48.4053 400.53 47.9253 401.096 47.584C401.661 47.2427 402.29 47.072 402.984 47.072ZM416.684 51.28C416.684 51.5573 416.668 51.8507 416.636 52.16H409.628C409.682 53.024 409.975 53.7013 410.508 54.192C411.052 54.672 411.708 54.912 412.476 54.912C413.106 54.912 413.628 54.768 414.044 54.48C414.471 54.1813 414.77 53.7867 414.94 53.296H416.508C416.274 54.1387 415.804 54.8267 415.1 55.36C414.396 55.8827 413.522 56.144 412.476 56.144C411.644 56.144 410.898 55.9573 410.236 55.584C409.586 55.2107 409.074 54.6827 408.7 54C408.327 53.3067 408.14 52.5067 408.14 51.6C408.14 50.6933 408.322 49.8987 408.684 49.216C409.047 48.5333 409.554 48.0107 410.204 47.648C410.866 47.2747 411.623 47.088 412.476 47.088C413.308 47.088 414.044 47.2693 414.684 47.632C415.324 47.9947 415.815 48.496 416.156 49.136C416.508 49.7653 416.684 50.48 416.684 51.28ZM415.18 50.976C415.18 50.4213 415.058 49.9467 414.812 49.552C414.567 49.1467 414.231 48.8427 413.804 48.64C413.388 48.4267 412.924 48.32 412.412 48.32C411.676 48.32 411.047 48.5547 410.524 49.024C410.012 49.4933 409.719 50.144 409.644 50.976H415.18ZM420.142 48.432V53.6C420.142 54.0267 420.233 54.3307 420.414 54.512C420.595 54.6827 420.91 54.768 421.358 54.768H422.43V56H421.118C420.307 56 419.699 55.8133 419.294 55.44C418.889 55.0667 418.686 54.4533 418.686 53.6V48.432H417.55V47.232H418.686V45.024H420.142V47.232H422.43V48.432H420.142ZM428.306 47.072C428.968 47.072 429.565 47.216 430.098 47.504C430.632 47.7813 431.048 48.2027 431.346 48.768C431.656 49.3333 431.81 50.0213 431.81 50.832V56H430.37V51.04C430.37 50.1653 430.152 49.4987 429.714 49.04C429.277 48.5707 428.68 48.336 427.922 48.336C427.154 48.336 426.541 48.576 426.082 49.056C425.634 49.536 425.41 50.2347 425.41 51.152V56H423.954V44.16H425.41V48.48C425.698 48.032 426.093 47.6853 426.594 47.44C427.106 47.1947 427.677 47.072 428.306 47.072ZM434.701 45.808C434.423 45.808 434.189 45.712 433.997 45.52C433.805 45.328 433.709 45.0933 433.709 44.816C433.709 44.5387 433.805 44.304 433.997 44.112C434.189 43.92 434.423 43.824 434.701 43.824C434.967 43.824 435.191 43.92 435.373 44.112C435.565 44.304 435.661 44.5387 435.661 44.816C435.661 45.0933 435.565 45.328 435.373 45.52C435.191 45.712 434.967 45.808 434.701 45.808ZM435.405 47.232V56H433.949V47.232H435.405ZM441.918 47.072C442.985 47.072 443.849 47.3973 444.51 48.048C445.171 48.688 445.502 49.616 445.502 50.832V56H444.062V51.04C444.062 50.1653 443.843 49.4987 443.406 49.04C442.969 48.5707 442.371 48.336 441.614 48.336C440.846 48.336 440.233 48.576 439.774 49.056C439.326 49.536 439.102 50.2347 439.102 51.152V56H437.646V47.232H439.102V48.48C439.39 48.032 439.779 47.6853 440.27 47.44C440.771 47.1947 441.321 47.072 441.918 47.072ZM451.256 47.088C452.014 47.088 452.675 47.2533 453.24 47.584C453.816 47.9147 454.243 48.3307 454.52 48.832V47.232H455.992V56.192C455.992 56.992 455.822 57.7013 455.48 58.32C455.139 58.9493 454.648 59.44 454.008 59.792C453.379 60.144 452.643 60.32 451.8 60.32C450.648 60.32 449.688 60.048 448.92 59.504C448.152 58.96 447.699 58.2187 447.56 57.28H449C449.16 57.8133 449.491 58.24 449.992 58.56C450.494 58.8907 451.096 59.056 451.8 59.056C452.6 59.056 453.251 58.8053 453.752 58.304C454.264 57.8027 454.52 57.0987 454.52 56.192V54.352C454.232 54.864 453.806 55.2907 453.24 55.632C452.675 55.9733 452.014 56.144 451.256 56.144C450.478 56.144 449.768 55.952 449.128 55.568C448.499 55.184 448.003 54.6453 447.64 53.952C447.278 53.2587 447.096 52.4693 447.096 51.584C447.096 50.688 447.278 49.904 447.64 49.232C448.003 48.5493 448.499 48.0213 449.128 47.648C449.768 47.2747 450.478 47.088 451.256 47.088ZM454.52 51.6C454.52 50.9387 454.387 50.3627 454.12 49.872C453.854 49.3813 453.491 49.008 453.032 48.752C452.584 48.4853 452.088 48.352 451.544 48.352C451 48.352 450.504 48.48 450.056 48.736C449.608 48.992 449.251 49.3653 448.984 49.856C448.718 50.3467 448.584 50.9227 448.584 51.584C448.584 52.256 448.718 52.8427 448.984 53.344C449.251 53.8347 449.608 54.2133 450.056 54.48C450.504 54.736 451 54.864 451.544 54.864C452.088 54.864 452.584 54.736 453.032 54.48C453.491 54.2133 453.854 53.8347 454.12 53.344C454.387 52.8427 454.52 52.2613 454.52 51.6ZM458.677 56.096C458.4 56.096 458.165 56 457.973 55.808C457.781 55.616 457.685 55.3813 457.685 55.104C457.685 54.8267 457.781 54.592 457.973 54.4C458.165 54.208 458.4 54.112 458.677 54.112C458.944 54.112 459.168 54.208 459.349 54.4C459.541 54.592 459.637 54.8267 459.637 55.104C459.637 55.3813 459.541 55.616 459.349 55.808C459.168 56 458.944 56.096 458.677 56.096ZM471.95 53.52H467.086L466.19 56H464.654L468.686 44.912H470.366L474.382 56H472.846L471.95 53.52ZM471.534 52.336L469.518 46.704L467.502 52.336H471.534ZM188.738 64.432H186.898V72H185.442V64.432H184.306V63.232H185.442V62.608C185.442 61.6267 185.692 60.912 186.194 60.464C186.706 60.0053 187.522 59.776 188.642 59.776V60.992C188.002 60.992 187.548 61.12 187.282 61.376C187.026 61.6213 186.898 62.032 186.898 62.608V63.232H188.738V64.432ZM198.195 67.28C198.195 67.5573 198.179 67.8507 198.147 68.16H191.139C191.193 69.024 191.486 69.7013 192.019 70.192C192.563 70.672 193.219 70.912 193.987 70.912C194.617 70.912 195.139 70.768 195.555 70.48C195.982 70.1813 196.281 69.7867 196.451 69.296H198.019C197.785 70.1387 197.315 70.8267 196.611 71.36C195.907 71.8827 195.033 72.144 193.987 72.144C193.155 72.144 192.409 71.9573 191.747 71.584C191.097 71.2107 190.585 70.6827 190.211 70C189.838 69.3067 189.651 68.5067 189.651 67.6C189.651 66.6933 189.833 65.8987 190.195 65.216C190.558 64.5333 191.065 64.0107 191.715 63.648C192.377 63.2747 193.134 63.088 193.987 63.088C194.819 63.088 195.555 63.2693 196.195 63.632C196.835 63.9947 197.326 64.496 197.667 65.136C198.019 65.7653 198.195 66.48 198.195 67.28ZM196.691 66.976C196.691 66.4213 196.569 65.9467 196.323 65.552C196.078 65.1467 195.742 64.8427 195.315 64.64C194.899 64.4267 194.435 64.32 193.923 64.32C193.187 64.32 192.558 64.5547 192.035 65.024C191.523 65.4933 191.23 66.144 191.155 66.976H196.691ZM211.557 63.232L208.821 72H207.317L205.205 65.04L203.093 72H201.589L198.837 63.232H200.325L202.341 70.592L204.517 63.232H206.005L208.133 70.608L210.117 63.232H211.557ZM218.244 60.16V72H216.788V60.16H218.244ZM228.485 67.28C228.485 67.5573 228.469 67.8507 228.437 68.16H221.429C221.483 69.024 221.776 69.7013 222.309 70.192C222.853 70.672 223.509 70.912 224.277 70.912C224.907 70.912 225.429 70.768 225.845 70.48C226.272 70.1813 226.571 69.7867 226.741 69.296H228.309C228.075 70.1387 227.605 70.8267 226.901 71.36C226.197 71.8827 225.323 72.144 224.277 72.144C223.445 72.144 222.699 71.9573 222.037 71.584C221.387 71.2107 220.875 70.6827 220.501 70C220.128 69.3067 219.941 68.5067 219.941 67.6C219.941 66.6933 220.123 65.8987 220.485 65.216C220.848 64.5333 221.355 64.0107 222.005 63.648C222.667 63.2747 223.424 63.088 224.277 63.088C225.109 63.088 225.845 63.2693 226.485 63.632C227.125 63.9947 227.616 64.496 227.957 65.136C228.309 65.7653 228.485 66.48 228.485 67.28ZM226.981 66.976C226.981 66.4213 226.859 65.9467 226.613 65.552C226.368 65.1467 226.032 64.8427 225.605 64.64C225.189 64.4267 224.725 64.32 224.213 64.32C223.477 64.32 222.848 64.5547 222.325 65.024C221.813 65.4933 221.52 66.144 221.445 66.976H226.981ZM233.431 70.656L236.151 63.232H237.703L234.263 72H232.567L229.127 63.232H230.695L233.431 70.656ZM246.896 67.28C246.896 67.5573 246.88 67.8507 246.848 68.16H239.84C239.893 69.024 240.187 69.7013 240.72 70.192C241.264 70.672 241.92 70.912 242.688 70.912C243.317 70.912 243.84 70.768 244.256 70.48C244.683 70.1813 244.981 69.7867 245.152 69.296H246.72C246.485 70.1387 246.016 70.8267 245.312 71.36C244.608 71.8827 243.733 72.144 242.688 72.144C241.856 72.144 241.109 71.9573 240.448 71.584C239.797 71.2107 239.285 70.6827 238.912 70C238.539 69.3067 238.352 68.5067 238.352 67.6C238.352 66.6933 238.533 65.8987 238.896 65.216C239.259 64.5333 239.765 64.0107 240.416 63.648C241.077 63.2747 241.835 63.088 242.688 63.088C243.52 63.088 244.256 63.2693 244.896 63.632C245.536 63.9947 246.027 64.496 246.368 65.136C246.72 65.7653 246.896 66.48 246.896 67.28ZM245.392 66.976C245.392 66.4213 245.269 65.9467 245.024 65.552C244.779 65.1467 244.443 64.8427 244.016 64.64C243.6 64.4267 243.136 64.32 242.624 64.32C241.888 64.32 241.259 64.5547 240.736 65.024C240.224 65.4933 239.931 66.144 239.856 66.976H245.392ZM250.034 60.16V72H248.578V60.16H250.034ZM255.379 72.144C254.707 72.144 254.105 72.032 253.571 71.808C253.038 71.5733 252.617 71.2533 252.307 70.848C251.998 70.432 251.827 69.9573 251.795 69.424H253.299C253.342 69.8613 253.545 70.2187 253.907 70.496C254.281 70.7733 254.766 70.912 255.363 70.912C255.918 70.912 256.355 70.7893 256.675 70.544C256.995 70.2987 257.155 69.9893 257.155 69.616C257.155 69.232 256.985 68.9493 256.643 68.768C256.302 68.576 255.774 68.3893 255.059 68.208C254.409 68.0373 253.875 67.8667 253.459 67.696C253.054 67.5147 252.702 67.2533 252.403 66.912C252.115 66.56 251.971 66.1013 251.971 65.536C251.971 65.088 252.105 64.6773 252.371 64.304C252.638 63.9307 253.017 63.6373 253.507 63.424C253.998 63.2 254.558 63.088 255.187 63.088C256.158 63.088 256.942 63.3333 257.539 63.824C258.137 64.3147 258.457 64.9867 258.499 65.84H257.043C257.011 65.3813 256.825 65.0133 256.483 64.736C256.153 64.4587 255.705 64.32 255.139 64.32C254.617 64.32 254.201 64.432 253.891 64.656C253.582 64.88 253.427 65.1733 253.427 65.536C253.427 65.824 253.518 66.064 253.699 66.256C253.891 66.4373 254.126 66.5867 254.403 66.704C254.691 66.8107 255.086 66.9333 255.587 67.072C256.217 67.2427 256.729 67.4133 257.123 67.584C257.518 67.744 257.854 67.9893 258.131 68.32C258.419 68.6507 258.569 69.0827 258.579 69.616C258.579 70.096 258.446 70.528 258.179 70.912C257.913 71.296 257.534 71.6 257.043 71.824C256.563 72.0373 256.009 72.144 255.379 72.144ZM265.876 60.16V72H264.42V60.16H265.876ZM267.574 67.584C267.574 66.688 267.755 65.904 268.118 65.232C268.481 64.5493 268.977 64.0213 269.606 63.648C270.246 63.2747 270.955 63.088 271.734 63.088C272.502 63.088 273.169 63.2533 273.734 63.584C274.299 63.9147 274.721 64.3307 274.998 64.832V63.232H276.47V72H274.998V70.368C274.71 70.88 274.278 71.3067 273.702 71.648C273.137 71.9787 272.475 72.144 271.718 72.144C270.939 72.144 270.235 71.952 269.606 71.568C268.977 71.184 268.481 70.6453 268.118 69.952C267.755 69.2587 267.574 68.4693 267.574 67.584ZM274.998 67.6C274.998 66.9387 274.865 66.3627 274.598 65.872C274.331 65.3813 273.969 65.008 273.51 64.752C273.062 64.4853 272.566 64.352 272.022 64.352C271.478 64.352 270.982 64.48 270.534 64.736C270.086 64.992 269.729 65.3653 269.462 65.856C269.195 66.3467 269.062 66.9227 269.062 67.584C269.062 68.256 269.195 68.8427 269.462 69.344C269.729 69.8347 270.086 70.2133 270.534 70.48C270.982 70.736 271.478 70.864 272.022 70.864C272.566 70.864 273.062 70.736 273.51 70.48C273.969 70.2133 274.331 69.8347 274.598 69.344C274.865 68.8427 274.998 68.2613 274.998 67.6ZM280.466 64.432V69.6C280.466 70.0267 280.557 70.3307 280.738 70.512C280.92 70.6827 281.234 70.768 281.682 70.768H282.754V72H281.442C280.632 72 280.024 71.8133 279.618 71.44C279.213 71.0667 279.01 70.4533 279.01 69.6V64.432H277.874V63.232H279.01V61.024H280.466V63.232H282.754V64.432H280.466ZM292.279 67.28C292.279 67.5573 292.263 67.8507 292.231 68.16H285.223C285.276 69.024 285.569 69.7013 286.103 70.192C286.647 70.672 287.303 70.912 288.071 70.912C288.7 70.912 289.223 70.768 289.639 70.48C290.065 70.1813 290.364 69.7867 290.535 69.296H292.103C291.868 70.1387 291.399 70.8267 290.695 71.36C289.991 71.8827 289.116 72.144 288.071 72.144C287.239 72.144 286.492 71.9573 285.831 71.584C285.18 71.2107 284.668 70.6827 284.295 70C283.921 69.3067 283.735 68.5067 283.735 67.6C283.735 66.6933 283.916 65.8987 284.279 65.216C284.641 64.5333 285.148 64.0107 285.799 63.648C286.46 63.2747 287.217 63.088 288.071 63.088C288.903 63.088 289.639 63.2693 290.279 63.632C290.919 63.9947 291.409 64.496 291.751 65.136C292.103 65.7653 292.279 66.48 292.279 67.28ZM290.775 66.976C290.775 66.4213 290.652 65.9467 290.407 65.552C290.161 65.1467 289.825 64.8427 289.399 64.64C288.983 64.4267 288.519 64.32 288.007 64.32C287.271 64.32 286.641 64.5547 286.119 65.024C285.607 65.4933 285.313 66.144 285.239 66.976H290.775ZM295.416 64.656C295.672 64.1547 296.035 63.7653 296.504 63.488C296.984 63.2107 297.566 63.072 298.248 63.072V64.576H297.864C296.232 64.576 295.416 65.4613 295.416 67.232V72H293.96V63.232H295.416V64.656ZM301.193 69.984L299.401 74.288H298.425L299.593 69.984H301.193ZM314.199 63.232L308.919 76.128H307.415L309.143 71.904L305.607 63.232H307.223L309.975 70.336L312.695 63.232H314.199ZM319.246 72.144C318.425 72.144 317.678 71.9573 317.006 71.584C316.345 71.2107 315.822 70.6827 315.438 70C315.065 69.3067 314.878 68.5067 314.878 67.6C314.878 66.704 315.07 65.9147 315.454 65.232C315.849 64.5387 316.382 64.0107 317.054 63.648C317.726 63.2747 318.478 63.088 319.31 63.088C320.142 63.088 320.894 63.2747 321.566 63.648C322.238 64.0107 322.766 64.5333 323.15 65.216C323.545 65.8987 323.742 66.6933 323.742 67.6C323.742 68.5067 323.54 69.3067 323.134 70C322.74 70.6827 322.201 71.2107 321.518 71.584C320.836 71.9573 320.078 72.144 319.246 72.144ZM319.246 70.864C319.769 70.864 320.26 70.7413 320.718 70.496C321.177 70.2507 321.545 69.8827 321.822 69.392C322.11 68.9013 322.254 68.304 322.254 67.6C322.254 66.896 322.116 66.2987 321.838 65.808C321.561 65.3173 321.198 64.9547 320.75 64.72C320.302 64.4747 319.817 64.352 319.294 64.352C318.761 64.352 318.27 64.4747 317.822 64.72C317.385 64.9547 317.033 65.3173 316.766 65.808C316.5 66.2987 316.366 66.896 316.366 67.6C316.366 68.3147 316.494 68.9173 316.75 69.408C317.017 69.8987 317.369 70.2667 317.806 70.512C318.244 70.7467 318.724 70.864 319.246 70.864ZM333.193 63.232V72H331.737V70.704C331.459 71.152 331.07 71.504 330.569 71.76C330.078 72.0053 329.534 72.128 328.937 72.128C328.254 72.128 327.641 71.9893 327.097 71.712C326.553 71.424 326.121 70.9973 325.801 70.432C325.491 69.8667 325.337 69.1787 325.337 68.368V63.232H326.777V68.176C326.777 69.04 326.995 69.7067 327.433 70.176C327.87 70.6347 328.467 70.864 329.225 70.864C330.003 70.864 330.617 70.624 331.065 70.144C331.513 69.664 331.737 68.9653 331.737 68.048V63.232H333.193ZM349.981 63.072C350.663 63.072 351.271 63.216 351.805 63.504C352.338 63.7813 352.759 64.2027 353.069 64.768C353.378 65.3333 353.533 66.0213 353.533 66.832V72H352.093V67.04C352.093 66.1653 351.874 65.4987 351.437 65.04C351.01 64.5707 350.429 64.336 349.693 64.336C348.935 64.336 348.333 64.5813 347.885 65.072C347.437 65.552 347.213 66.2507 347.213 67.168V72H345.773V67.04C345.773 66.1653 345.554 65.4987 345.117 65.04C344.69 64.5707 344.109 64.336 343.373 64.336C342.615 64.336 342.013 64.5813 341.565 65.072C341.117 65.552 340.893 66.2507 340.893 67.168V72H339.437V63.232H340.893V64.496C341.181 64.0373 341.565 63.6853 342.045 63.44C342.535 63.1947 343.074 63.072 343.661 63.072C344.397 63.072 345.047 63.2373 345.613 63.568C346.178 63.8987 346.599 64.384 346.877 65.024C347.122 64.4053 347.527 63.9253 348.093 63.584C348.658 63.2427 349.287 63.072 349.981 63.072ZM356.433 61.808C356.156 61.808 355.921 61.712 355.729 61.52C355.537 61.328 355.441 61.0933 355.441 60.816C355.441 60.5387 355.537 60.304 355.729 60.112C355.921 59.92 356.156 59.824 356.433 59.824C356.7 59.824 356.924 59.92 357.105 60.112C357.297 60.304 357.393 60.5387 357.393 60.816C357.393 61.0933 357.297 61.328 357.105 61.52C356.924 61.712 356.7 61.808 356.433 61.808ZM357.137 63.232V72H355.681V63.232H357.137ZM362.995 63.088C363.752 63.088 364.413 63.2533 364.979 63.584C365.555 63.9147 365.981 64.3307 366.259 64.832V63.232H367.731V72.192C367.731 72.992 367.56 73.7013 367.219 74.32C366.877 74.9493 366.387 75.44 365.747 75.792C365.117 76.144 364.381 76.32 363.539 76.32C362.387 76.32 361.427 76.048 360.659 75.504C359.891 74.96 359.437 74.2187 359.299 73.28H360.739C360.899 73.8133 361.229 74.24 361.731 74.56C362.232 74.8907 362.835 75.056 363.539 75.056C364.339 75.056 364.989 74.8053 365.491 74.304C366.003 73.8027 366.259 73.0987 366.259 72.192V70.352C365.971 70.864 365.544 71.2907 364.979 71.632C364.413 71.9733 363.752 72.144 362.995 72.144C362.216 72.144 361.507 71.952 360.867 71.568C360.237 71.184 359.741 70.6453 359.379 69.952C359.016 69.2587 358.835 68.4693 358.835 67.584C358.835 66.688 359.016 65.904 359.379 65.232C359.741 64.5493 360.237 64.0213 360.867 63.648C361.507 63.2747 362.216 63.088 362.995 63.088ZM366.259 67.6C366.259 66.9387 366.125 66.3627 365.859 65.872C365.592 65.3813 365.229 65.008 364.771 64.752C364.323 64.4853 363.827 64.352 363.283 64.352C362.739 64.352 362.243 64.48 361.795 64.736C361.347 64.992 360.989 65.3653 360.723 65.856C360.456 66.3467 360.323 66.9227 360.323 67.584C360.323 68.256 360.456 68.8427 360.723 69.344C360.989 69.8347 361.347 70.2133 361.795 70.48C362.243 70.736 362.739 70.864 363.283 70.864C363.827 70.864 364.323 70.736 364.771 70.48C365.229 70.2133 365.592 69.8347 365.859 69.344C366.125 68.8427 366.259 68.2613 366.259 67.6ZM374.303 63.072C374.964 63.072 375.562 63.216 376.095 63.504C376.628 63.7813 377.044 64.2027 377.343 64.768C377.652 65.3333 377.807 66.0213 377.807 66.832V72H376.367V67.04C376.367 66.1653 376.148 65.4987 375.711 65.04C375.274 64.5707 374.676 64.336 373.919 64.336C373.151 64.336 372.538 64.576 372.079 65.056C371.631 65.536 371.407 66.2347 371.407 67.152V72H369.951V60.16H371.407V64.48C371.695 64.032 372.09 63.6853 372.591 63.44C373.103 63.1947 373.674 63.072 374.303 63.072ZM381.721 64.432V69.6C381.721 70.0267 381.812 70.3307 381.993 70.512C382.175 70.6827 382.489 70.768 382.937 70.768H384.009V72H382.697C381.887 72 381.279 71.8133 380.873 71.44C380.468 71.0667 380.265 70.4533 380.265 69.6V64.432H379.129V63.232H380.265V61.024H381.721V63.232H384.009V64.432H381.721ZM393.831 63.072C394.898 63.072 395.762 63.3973 396.423 64.048C397.085 64.688 397.415 65.616 397.415 66.832V72H395.975V67.04C395.975 66.1653 395.757 65.4987 395.319 65.04C394.882 64.5707 394.285 64.336 393.527 64.336C392.759 64.336 392.146 64.576 391.687 65.056C391.239 65.536 391.015 66.2347 391.015 67.152V72H389.559V63.232H391.015V64.48C391.303 64.032 391.693 63.6853 392.183 63.44C392.685 63.1947 393.234 63.072 393.831 63.072ZM407.554 67.28C407.554 67.5573 407.538 67.8507 407.506 68.16H400.498C400.551 69.024 400.844 69.7013 401.378 70.192C401.922 70.672 402.578 70.912 403.346 70.912C403.975 70.912 404.498 70.768 404.914 70.48C405.34 70.1813 405.639 69.7867 405.81 69.296H407.378C407.143 70.1387 406.674 70.8267 405.97 71.36C405.266 71.8827 404.391 72.144 403.346 72.144C402.514 72.144 401.767 71.9573 401.106 71.584C400.455 71.2107 399.943 70.6827 399.57 70C399.196 69.3067 399.01 68.5067 399.01 67.6C399.01 66.6933 399.191 65.8987 399.554 65.216C399.916 64.5333 400.423 64.0107 401.074 63.648C401.735 63.2747 402.492 63.088 403.346 63.088C404.178 63.088 404.914 63.2693 405.554 63.632C406.194 63.9947 406.684 64.496 407.026 65.136C407.378 65.7653 407.554 66.48 407.554 67.28ZM406.05 66.976C406.05 66.4213 405.927 65.9467 405.682 65.552C405.436 65.1467 405.1 64.8427 404.674 64.64C404.258 64.4267 403.794 64.32 403.282 64.32C402.546 64.32 401.916 64.5547 401.394 65.024C400.882 65.4933 400.588 66.144 400.514 66.976H406.05ZM417.235 67.28C417.235 67.5573 417.219 67.8507 417.187 68.16H410.179C410.233 69.024 410.526 69.7013 411.059 70.192C411.603 70.672 412.259 70.912 413.027 70.912C413.657 70.912 414.179 70.768 414.595 70.48C415.022 70.1813 415.321 69.7867 415.491 69.296H417.059C416.825 70.1387 416.355 70.8267 415.651 71.36C414.947 71.8827 414.073 72.144 413.027 72.144C412.195 72.144 411.449 71.9573 410.787 71.584C410.137 71.2107 409.625 70.6827 409.251 70C408.878 69.3067 408.691 68.5067 408.691 67.6C408.691 66.6933 408.873 65.8987 409.235 65.216C409.598 64.5333 410.105 64.0107 410.755 63.648C411.417 63.2747 412.174 63.088 413.027 63.088C413.859 63.088 414.595 63.2693 415.235 63.632C415.875 63.9947 416.366 64.496 416.707 65.136C417.059 65.7653 417.235 66.48 417.235 67.28ZM415.731 66.976C415.731 66.4213 415.609 65.9467 415.363 65.552C415.118 65.1467 414.782 64.8427 414.355 64.64C413.939 64.4267 413.475 64.32 412.963 64.32C412.227 64.32 411.598 64.5547 411.075 65.024C410.563 65.4933 410.27 66.144 410.195 66.976H415.731ZM418.373 67.584C418.373 66.688 418.555 65.904 418.917 65.232C419.28 64.5493 419.776 64.0213 420.405 63.648C421.045 63.2747 421.76 63.088 422.549 63.088C423.232 63.088 423.867 63.248 424.453 63.568C425.04 63.8773 425.488 64.288 425.797 64.8V60.16H427.269V72H425.797V70.352C425.509 70.8747 425.083 71.3067 424.517 71.648C423.952 71.9787 423.291 72.144 422.533 72.144C421.755 72.144 421.045 71.952 420.405 71.568C419.776 71.184 419.28 70.6453 418.917 69.952C418.555 69.2587 418.373 68.4693 418.373 67.584ZM425.797 67.6C425.797 66.9387 425.664 66.3627 425.397 65.872C425.131 65.3813 424.768 65.008 424.309 64.752C423.861 64.4853 423.365 64.352 422.821 64.352C422.277 64.352 421.781 64.48 421.333 64.736C420.885 64.992 420.528 65.3653 420.261 65.856C419.995 66.3467 419.861 66.9227 419.861 67.584C419.861 68.256 419.995 68.8427 420.261 69.344C420.528 69.8347 420.885 70.2133 421.333 70.48C421.781 70.736 422.277 70.864 422.821 70.864C423.365 70.864 423.861 70.736 424.309 70.48C424.768 70.2133 425.131 69.8347 425.397 69.344C425.664 68.8427 425.797 68.2613 425.797 67.6ZM432.971 67.584C432.971 66.688 433.153 65.904 433.515 65.232C433.878 64.5493 434.374 64.0213 435.003 63.648C435.643 63.2747 436.353 63.088 437.131 63.088C437.899 63.088 438.566 63.2533 439.131 63.584C439.697 63.9147 440.118 64.3307 440.395 64.832V63.232H441.867V72H440.395V70.368C440.107 70.88 439.675 71.3067 439.099 71.648C438.534 71.9787 437.873 72.144 437.115 72.144C436.337 72.144 435.633 71.952 435.003 71.568C434.374 71.184 433.878 70.6453 433.515 69.952C433.153 69.2587 432.971 68.4693 432.971 67.584ZM440.395 67.6C440.395 66.9387 440.262 66.3627 439.995 65.872C439.729 65.3813 439.366 65.008 438.907 64.752C438.459 64.4853 437.963 64.352 437.419 64.352C436.875 64.352 436.379 64.48 435.931 64.736C435.483 64.992 435.126 65.3653 434.859 65.856C434.593 66.3467 434.459 66.9227 434.459 67.584C434.459 68.256 434.593 68.8427 434.859 69.344C435.126 69.8347 435.483 70.2133 435.931 70.48C436.379 70.736 436.875 70.864 437.419 70.864C437.963 70.864 438.459 70.736 438.907 70.48C439.366 70.2133 439.729 69.8347 439.995 69.344C440.262 68.8427 440.395 68.2613 440.395 67.6ZM459.794 63.232L457.058 72H455.554L453.442 65.04L451.33 72H449.826L447.074 63.232H448.562L450.578 70.592L452.754 63.232H454.242L456.37 70.608L458.354 63.232H459.794ZM464.823 72.144C464.001 72.144 463.255 71.9573 462.583 71.584C461.921 71.2107 461.399 70.6827 461.015 70C460.641 69.3067 460.455 68.5067 460.455 67.6C460.455 66.704 460.647 65.9147 461.031 65.232C461.425 64.5387 461.959 64.0107 462.631 63.648C463.303 63.2747 464.055 63.088 464.887 63.088C465.719 63.088 466.471 63.2747 467.143 63.648C467.815 64.0107 468.343 64.5333 468.727 65.216C469.121 65.8987 469.319 66.6933 469.319 67.6C469.319 68.5067 469.116 69.3067 468.711 70C468.316 70.6827 467.777 71.2107 467.095 71.584C466.412 71.9573 465.655 72.144 464.823 72.144ZM464.823 70.864C465.345 70.864 465.836 70.7413 466.295 70.496C466.753 70.2507 467.121 69.8827 467.399 69.392C467.687 68.9013 467.831 68.304 467.831 67.6C467.831 66.896 467.692 66.2987 467.415 65.808C467.137 65.3173 466.775 64.9547 466.327 64.72C465.879 64.4747 465.393 64.352 464.871 64.352C464.337 64.352 463.847 64.4747 463.399 64.72C462.961 64.9547 462.609 65.3173 462.343 65.808C462.076 66.2987 461.943 66.896 461.943 67.6C461.943 68.3147 462.071 68.9173 462.327 69.408C462.593 69.8987 462.945 70.2667 463.383 70.512C463.82 70.7467 464.3 70.864 464.823 70.864ZM472.449 64.656C472.705 64.1547 473.068 63.7653 473.537 63.488C474.017 63.2107 474.598 63.072 475.281 63.072V64.576H474.897C473.265 64.576 472.449 65.4613 472.449 67.232V72H470.993V63.232H472.449V64.656ZM476.178 67.584C476.178 66.688 476.359 65.904 476.722 65.232C477.084 64.5493 477.58 64.0213 478.21 63.648C478.85 63.2747 479.564 63.088 480.354 63.088C481.036 63.088 481.671 63.248 482.258 63.568C482.844 63.8773 483.292 64.288 483.602 64.8V60.16H485.074V72H483.602V70.352C483.314 70.8747 482.887 71.3067 482.322 71.648C481.756 71.9787 481.095 72.144 480.338 72.144C479.559 72.144 478.85 71.952 478.21 71.568C477.58 71.184 477.084 70.6453 476.722 69.952C476.359 69.2587 476.178 68.4693 476.178 67.584ZM483.602 67.6C483.602 66.9387 483.468 66.3627 483.202 65.872C482.935 65.3813 482.572 65.008 482.114 64.752C481.666 64.4853 481.17 64.352 480.626 64.352C480.082 64.352 479.586 64.48 479.138 64.736C478.69 64.992 478.332 65.3653 478.066 65.856C477.799 66.3467 477.666 66.9227 477.666 67.584C477.666 68.256 477.799 68.8427 478.066 69.344C478.332 69.8347 478.69 70.2133 479.138 70.48C479.586 70.736 480.082 70.864 480.626 70.864C481.17 70.864 481.666 70.736 482.114 70.48C482.572 70.2133 482.935 69.8347 483.202 69.344C483.468 68.8427 483.602 68.2613 483.602 67.6ZM207.784 76.16V88H206.328V76.16H207.784ZM210.778 77.808C210.5 77.808 210.266 77.712 210.074 77.52C209.882 77.328 209.786 77.0933 209.786 76.816C209.786 76.5387 209.882 76.304 210.074 76.112C210.266 75.92 210.5 75.824 210.778 75.824C211.044 75.824 211.268 75.92 211.45 76.112C211.642 76.304 211.738 76.5387 211.738 76.816C211.738 77.0933 211.642 77.328 211.45 77.52C211.268 77.712 211.044 77.808 210.778 77.808ZM211.482 79.232V88H210.026V79.232H211.482ZM218.619 88L215.179 84.128V88H213.723V76.16H215.179V83.12L218.555 79.232H220.587L216.459 83.6L220.603 88H218.619ZM229.718 83.28C229.718 83.5573 229.702 83.8507 229.67 84.16H222.662C222.715 85.024 223.008 85.7013 223.542 86.192C224.086 86.672 224.742 86.912 225.51 86.912C226.139 86.912 226.662 86.768 227.078 86.48C227.504 86.1813 227.803 85.7867 227.974 85.296H229.542C229.307 86.1387 228.838 86.8267 228.134 87.36C227.43 87.8827 226.555 88.144 225.51 88.144C224.678 88.144 223.931 87.9573 223.27 87.584C222.619 87.2107 222.107 86.6827 221.734 86C221.36 85.3067 221.174 84.5067 221.174 83.6C221.174 82.6933 221.355 81.8987 221.718 81.216C222.08 80.5333 222.587 80.0107 223.238 79.648C223.899 79.2747 224.656 79.088 225.51 79.088C226.342 79.088 227.078 79.2693 227.718 79.632C228.358 79.9947 228.848 80.496 229.19 81.136C229.542 81.7653 229.718 82.48 229.718 83.28ZM228.214 82.976C228.214 82.4213 228.091 81.9467 227.846 81.552C227.6 81.1467 227.264 80.8427 226.838 80.64C226.422 80.4267 225.958 80.32 225.446 80.32C224.71 80.32 224.08 80.5547 223.558 81.024C223.046 81.4933 222.752 82.144 222.678 82.976H228.214ZM232.904 85.984L231.112 90.288H230.136L231.304 85.984H232.904ZM239.141 80.48H237.509L239.045 76.848H240.085L239.141 80.48ZM241.733 80.48H240.101L241.637 76.848H242.677L241.733 80.48ZM245.427 86.736H250.867V88H243.699V86.848L249.107 78.112H243.763V76.848H250.835V78L245.427 86.736ZM252.067 83.584C252.067 82.688 252.249 81.904 252.611 81.232C252.974 80.5493 253.47 80.0213 254.099 79.648C254.739 79.2747 255.449 79.088 256.227 79.088C256.995 79.088 257.662 79.2533 258.227 79.584C258.793 79.9147 259.214 80.3307 259.491 80.832V79.232H260.963V88H259.491V86.368C259.203 86.88 258.771 87.3067 258.195 87.648C257.63 87.9787 256.969 88.144 256.211 88.144C255.433 88.144 254.729 87.952 254.099 87.568C253.47 87.184 252.974 86.6453 252.611 85.952C252.249 85.2587 252.067 84.4693 252.067 83.584ZM259.491 83.6C259.491 82.9387 259.358 82.3627 259.091 81.872C258.825 81.3813 258.462 81.008 258.003 80.752C257.555 80.4853 257.059 80.352 256.515 80.352C255.971 80.352 255.475 80.48 255.027 80.736C254.579 80.992 254.222 81.3653 253.955 81.856C253.689 82.3467 253.555 82.9227 253.555 83.584C253.555 84.256 253.689 84.8427 253.955 85.344C254.222 85.8347 254.579 86.2133 255.027 86.48C255.475 86.736 255.971 86.864 256.515 86.864C257.059 86.864 257.555 86.736 258.003 86.48C258.462 86.2133 258.825 85.8347 259.091 85.344C259.358 84.8427 259.491 84.2613 259.491 83.6ZM264.272 86.8H268.576V88H262.608V86.8L266.864 80.416H262.64V79.232H268.544V80.416L264.272 86.8ZM278.001 79.232V88H276.545V86.704C276.268 87.152 275.878 87.504 275.377 87.76C274.886 88.0053 274.342 88.128 273.745 88.128C273.062 88.128 272.449 87.9893 271.905 87.712C271.361 87.424 270.929 86.9973 270.609 86.432C270.3 85.8667 270.145 85.1787 270.145 84.368V79.232H271.585V84.176C271.585 85.04 271.804 85.7067 272.241 86.176C272.678 86.6347 273.276 86.864 274.033 86.864C274.812 86.864 275.425 86.624 275.873 86.144C276.321 85.664 276.545 84.9653 276.545 84.048V79.232H278.001ZM280.444 76.848H282.06L280.524 80.48H279.5L280.444 76.848ZM283.036 76.848H284.652L283.116 80.48H282.076L283.036 76.848ZM286.522 88.096C286.244 88.096 286.01 88 285.818 87.808C285.626 87.616 285.53 87.3813 285.53 87.104C285.53 86.8267 285.626 86.592 285.818 86.4C286.01 86.208 286.244 86.112 286.522 86.112C286.788 86.112 287.012 86.208 287.194 86.4C287.386 86.592 287.482 86.8267 287.482 87.104C287.482 87.3813 287.386 87.616 287.194 87.808C287.012 88 286.788 88.096 286.522 88.096ZM294.659 76.848V88H293.203V76.848H294.659ZM312.606 79.232L309.87 88H308.366L306.254 81.04L304.142 88H302.638L299.886 79.232H301.374L303.39 86.592L305.566 79.232H307.054L309.182 86.608L311.166 79.232H312.606ZM314.563 77.808C314.285 77.808 314.051 77.712 313.859 77.52C313.667 77.328 313.571 77.0933 313.571 76.816C313.571 76.5387 313.667 76.304 313.859 76.112C314.051 75.92 314.285 75.824 314.563 75.824C314.829 75.824 315.053 75.92 315.235 76.112C315.427 76.304 315.523 76.5387 315.523 76.816C315.523 77.0933 315.427 77.328 315.235 77.52C315.053 77.712 314.829 77.808 314.563 77.808ZM315.267 79.232V88H313.811V79.232H315.267ZM320.612 88.144C319.94 88.144 319.338 88.032 318.804 87.808C318.271 87.5733 317.85 87.2533 317.54 86.848C317.231 86.432 317.06 85.9573 317.028 85.424H318.532C318.575 85.8613 318.778 86.2187 319.14 86.496C319.514 86.7733 319.999 86.912 320.596 86.912C321.151 86.912 321.588 86.7893 321.908 86.544C322.228 86.2987 322.388 85.9893 322.388 85.616C322.388 85.232 322.218 84.9493 321.876 84.768C321.535 84.576 321.007 84.3893 320.292 84.208C319.642 84.0373 319.108 83.8667 318.692 83.696C318.287 83.5147 317.935 83.2533 317.636 82.912C317.348 82.56 317.204 82.1013 317.204 81.536C317.204 81.088 317.338 80.6773 317.604 80.304C317.871 79.9307 318.25 79.6373 318.74 79.424C319.231 79.2 319.791 79.088 320.42 79.088C321.391 79.088 322.175 79.3333 322.772 79.824C323.37 80.3147 323.69 80.9867 323.732 81.84H322.276C322.244 81.3813 322.058 81.0133 321.716 80.736C321.386 80.4587 320.938 80.32 320.372 80.32C319.85 80.32 319.434 80.432 319.124 80.656C318.815 80.88 318.66 81.1733 318.66 81.536C318.66 81.824 318.751 82.064 318.932 82.256C319.124 82.4373 319.359 82.5867 319.636 82.704C319.924 82.8107 320.319 82.9333 320.82 83.072C321.45 83.2427 321.962 83.4133 322.356 83.584C322.751 83.744 323.087 83.9893 323.364 84.32C323.652 84.6507 323.802 85.0827 323.812 85.616C323.812 86.096 323.679 86.528 323.412 86.912C323.146 87.296 322.767 87.6 322.276 87.824C321.796 88.0373 321.242 88.144 320.612 88.144ZM329.98 79.072C330.641 79.072 331.238 79.216 331.772 79.504C332.305 79.7813 332.721 80.2027 333.02 80.768C333.329 81.3333 333.484 82.0213 333.484 82.832V88H332.044V83.04C332.044 82.1653 331.825 81.4987 331.388 81.04C330.95 80.5707 330.353 80.336 329.596 80.336C328.828 80.336 328.214 80.576 327.756 81.056C327.308 81.536 327.084 82.2347 327.084 83.152V88H325.628V76.16H327.084V80.48C327.372 80.032 327.766 79.6853 328.268 79.44C328.78 79.1947 329.35 79.072 329.98 79.072ZM347.2 79.232L341.92 92.128H340.416L342.144 87.904L338.608 79.232H340.224L342.976 86.336L345.696 79.232H347.2ZM352.247 88.144C351.426 88.144 350.679 87.9573 350.007 87.584C349.346 87.2107 348.823 86.6827 348.439 86C348.066 85.3067 347.879 84.5067 347.879 83.6C347.879 82.704 348.071 81.9147 348.455 81.232C348.85 80.5387 349.383 80.0107 350.055 79.648C350.727 79.2747 351.479 79.088 352.311 79.088C353.143 79.088 353.895 79.2747 354.567 79.648C355.239 80.0107 355.767 80.5333 356.151 81.216C356.546 81.8987 356.743 82.6933 356.743 83.6C356.743 84.5067 356.541 85.3067 356.135 86C355.741 86.6827 355.202 87.2107 354.519 87.584C353.837 87.9573 353.079 88.144 352.247 88.144ZM352.247 86.864C352.77 86.864 353.261 86.7413 353.719 86.496C354.178 86.2507 354.546 85.8827 354.823 85.392C355.111 84.9013 355.255 84.304 355.255 83.6C355.255 82.896 355.117 82.2987 354.839 81.808C354.562 81.3173 354.199 80.9547 353.751 80.72C353.303 80.4747 352.818 80.352 352.295 80.352C351.762 80.352 351.271 80.4747 350.823 80.72C350.386 80.9547 350.034 81.3173 349.767 81.808C349.501 82.2987 349.367 82.896 349.367 83.6C349.367 84.3147 349.495 84.9173 349.751 85.408C350.018 85.8987 350.37 86.2667 350.807 86.512C351.245 86.7467 351.725 86.864 352.247 86.864ZM366.194 79.232V88H364.738V86.704C364.46 87.152 364.071 87.504 363.57 87.76C363.079 88.0053 362.535 88.128 361.938 88.128C361.255 88.128 360.642 87.9893 360.098 87.712C359.554 87.424 359.122 86.9973 358.802 86.432C358.492 85.8667 358.338 85.1787 358.338 84.368V79.232H359.778V84.176C359.778 85.04 359.996 85.7067 360.434 86.176C360.871 86.6347 361.468 86.864 362.226 86.864C363.004 86.864 363.618 86.624 364.066 86.144C364.514 85.664 364.738 84.9653 364.738 84.048V79.232H366.194ZM373.894 76.16V88H372.438V76.16H373.894ZM383.911 79.232V88H382.455V86.704C382.178 87.152 381.788 87.504 381.287 87.76C380.796 88.0053 380.252 88.128 379.655 88.128C378.972 88.128 378.359 87.9893 377.815 87.712C377.271 87.424 376.839 86.9973 376.519 86.432C376.21 85.8667 376.055 85.1787 376.055 84.368V79.232H377.495V84.176C377.495 85.04 377.714 85.7067 378.151 86.176C378.588 86.6347 379.186 86.864 379.943 86.864C380.722 86.864 381.335 86.624 381.783 86.144C382.231 85.664 382.455 84.9653 382.455 84.048V79.232H383.911ZM385.586 83.6C385.586 82.6933 385.767 81.904 386.13 81.232C386.492 80.5493 386.994 80.0213 387.634 79.648C388.284 79.2747 389.026 79.088 389.858 79.088C390.935 79.088 391.82 79.3493 392.514 79.872C393.218 80.3947 393.682 81.12 393.906 82.048H392.338C392.188 81.5147 391.895 81.0933 391.458 80.784C391.031 80.4747 390.498 80.32 389.858 80.32C389.026 80.32 388.354 80.608 387.842 81.184C387.33 81.7493 387.074 82.5547 387.074 83.6C387.074 84.656 387.33 85.472 387.842 86.048C388.354 86.624 389.026 86.912 389.858 86.912C390.498 86.912 391.031 86.7627 391.458 86.464C391.884 86.1653 392.178 85.7387 392.338 85.184H393.906C393.671 86.08 393.202 86.8 392.498 87.344C391.794 87.8773 390.914 88.144 389.858 88.144C389.026 88.144 388.284 87.9573 387.634 87.584C386.994 87.2107 386.492 86.6827 386.13 86C385.767 85.3173 385.586 84.5173 385.586 83.6ZM400.504 88L397.064 84.128V88H395.608V76.16H397.064V83.12L400.44 79.232H402.472L398.344 83.6L402.488 88H400.504ZM411.452 88.144C410.631 88.144 409.884 87.9573 409.212 87.584C408.551 87.2107 408.028 86.6827 407.644 86C407.271 85.3067 407.084 84.5067 407.084 83.6C407.084 82.704 407.276 81.9147 407.66 81.232C408.055 80.5387 408.588 80.0107 409.26 79.648C409.932 79.2747 410.684 79.088 411.516 79.088C412.348 79.088 413.1 79.2747 413.772 79.648C414.444 80.0107 414.972 80.5333 415.356 81.216C415.751 81.8987 415.948 82.6933 415.948 83.6C415.948 84.5067 415.746 85.3067 415.34 86C414.946 86.6827 414.407 87.2107 413.724 87.584C413.042 87.9573 412.284 88.144 411.452 88.144ZM411.452 86.864C411.975 86.864 412.466 86.7413 412.924 86.496C413.383 86.2507 413.751 85.8827 414.028 85.392C414.316 84.9013 414.46 84.304 414.46 83.6C414.46 82.896 414.322 82.2987 414.044 81.808C413.767 81.3173 413.404 80.9547 412.956 80.72C412.508 80.4747 412.023 80.352 411.5 80.352C410.967 80.352 410.476 80.4747 410.028 80.72C409.591 80.9547 409.239 81.3173 408.972 81.808C408.706 82.2987 408.572 82.896 408.572 83.6C408.572 84.3147 408.7 84.9173 408.956 85.408C409.223 85.8987 409.575 86.2667 410.012 86.512C410.45 86.7467 410.93 86.864 411.452 86.864ZM421.895 79.072C422.961 79.072 423.825 79.3973 424.487 80.048C425.148 80.688 425.479 81.616 425.479 82.832V88H424.039V83.04C424.039 82.1653 423.82 81.4987 423.383 81.04C422.945 80.5707 422.348 80.336 421.591 80.336C420.823 80.336 420.209 80.576 419.751 81.056C419.303 81.536 419.079 82.2347 419.079 83.152V88H417.623V79.232H419.079V80.48C419.367 80.032 419.756 79.6853 420.247 79.44C420.748 79.1947 421.297 79.072 421.895 79.072ZM439.195 79.232L433.915 92.128H432.411L434.139 87.904L430.603 79.232H432.219L434.971 86.336L437.691 79.232H439.195ZM444.242 88.144C443.421 88.144 442.674 87.9573 442.002 87.584C441.341 87.2107 440.818 86.6827 440.434 86C440.061 85.3067 439.874 84.5067 439.874 83.6C439.874 82.704 440.066 81.9147 440.45 81.232C440.845 80.5387 441.378 80.0107 442.05 79.648C442.722 79.2747 443.474 79.088 444.306 79.088C445.138 79.088 445.89 79.2747 446.562 79.648C447.234 80.0107 447.762 80.5333 448.146 81.216C448.541 81.8987 448.738 82.6933 448.738 83.6C448.738 84.5067 448.536 85.3067 448.13 86C447.736 86.6827 447.197 87.2107 446.514 87.584C445.832 87.9573 445.074 88.144 444.242 88.144ZM444.242 86.864C444.765 86.864 445.256 86.7413 445.714 86.496C446.173 86.2507 446.541 85.8827 446.818 85.392C447.106 84.9013 447.25 84.304 447.25 83.6C447.25 82.896 447.112 82.2987 446.834 81.808C446.557 81.3173 446.194 80.9547 445.746 80.72C445.298 80.4747 444.813 80.352 444.29 80.352C443.757 80.352 443.266 80.4747 442.818 80.72C442.381 80.9547 442.029 81.3173 441.762 81.808C441.496 82.2987 441.362 82.896 441.362 83.6C441.362 84.3147 441.49 84.9173 441.746 85.408C442.013 85.8987 442.365 86.2667 442.802 86.512C443.24 86.7467 443.72 86.864 444.242 86.864ZM458.189 79.232V88H456.733V86.704C456.455 87.152 456.066 87.504 455.565 87.76C455.074 88.0053 454.53 88.128 453.933 88.128C453.25 88.128 452.637 87.9893 452.093 87.712C451.549 87.424 451.117 86.9973 450.797 86.432C450.487 85.8667 450.333 85.1787 450.333 84.368V79.232H451.773V84.176C451.773 85.04 451.991 85.7067 452.429 86.176C452.866 86.6347 453.463 86.864 454.221 86.864C454.999 86.864 455.613 86.624 456.061 86.144C456.509 85.664 456.733 84.9653 456.733 84.048V79.232H458.189ZM461.863 80.656C462.119 80.1547 462.482 79.7653 462.951 79.488C463.431 79.2107 464.012 79.072 464.695 79.072V80.576H464.311C462.679 80.576 461.863 81.4613 461.863 83.232V88H460.407V79.232H461.863V80.656ZM278.678 93.808C278.4 93.808 278.166 93.712 277.974 93.52C277.792 93.328 277.702 93.0933 277.702 92.816C277.702 92.5387 277.792 92.304 277.974 92.112C278.166 91.92 278.4 91.824 278.678 91.824C278.955 91.824 279.184 91.92 279.366 92.112C279.558 92.304 279.654 92.5387 279.654 92.816C279.654 93.0933 279.558 93.328 279.366 93.52C279.184 93.712 278.955 93.808 278.678 93.808ZM279.398 105.904C279.398 106.683 279.2 107.253 278.806 107.616C278.411 107.979 277.835 108.16 277.078 108.16H276.23V106.928H276.838C277.243 106.928 277.526 106.848 277.686 106.688C277.856 106.528 277.942 106.256 277.942 105.872V95.232H279.398V105.904ZM285.446 104.144C284.625 104.144 283.878 103.957 283.206 103.584C282.545 103.211 282.022 102.683 281.638 102C281.265 101.307 281.078 100.507 281.078 99.6C281.078 98.704 281.27 97.9147 281.654 97.232C282.049 96.5387 282.582 96.0107 283.254 95.648C283.926 95.2747 284.678 95.088 285.51 95.088C286.342 95.088 287.094 95.2747 287.766 95.648C288.438 96.0107 288.966 96.5333 289.35 97.216C289.745 97.8987 289.942 98.6933 289.942 99.6C289.942 100.507 289.74 101.307 289.334 102C288.94 102.683 288.401 103.211 287.718 103.584C287.036 103.957 286.278 104.144 285.446 104.144ZM285.446 102.864C285.969 102.864 286.46 102.741 286.918 102.496C287.377 102.251 287.745 101.883 288.022 101.392C288.31 100.901 288.454 100.304 288.454 99.6C288.454 98.896 288.316 98.2987 288.038 97.808C287.761 97.3173 287.398 96.9547 286.95 96.72C286.502 96.4747 286.017 96.352 285.494 96.352C284.961 96.352 284.47 96.4747 284.022 96.72C283.585 96.9547 283.233 97.3173 282.966 97.808C282.7 98.2987 282.566 98.896 282.566 99.6C282.566 100.315 282.694 100.917 282.95 101.408C283.217 101.899 283.569 102.267 284.006 102.512C284.444 102.747 284.924 102.864 285.446 102.864ZM299.393 95.232V104H297.937V102.704C297.659 103.152 297.27 103.504 296.769 103.76C296.278 104.005 295.734 104.128 295.137 104.128C294.454 104.128 293.841 103.989 293.297 103.712C292.753 103.424 292.321 102.997 292.001 102.432C291.691 101.867 291.537 101.179 291.537 100.368V95.232H292.977V100.176C292.977 101.04 293.195 101.707 293.633 102.176C294.07 102.635 294.667 102.864 295.425 102.864C296.203 102.864 296.817 102.624 297.265 102.144C297.713 101.664 297.937 100.965 297.937 100.048V95.232H299.393ZM303.067 96.656C303.323 96.1547 303.686 95.7653 304.155 95.488C304.635 95.2107 305.216 95.072 305.899 95.072V96.576H305.515C303.883 96.576 303.067 97.4613 303.067 99.232V104H301.611V95.232H303.067V96.656ZM311.612 95.072C312.678 95.072 313.542 95.3973 314.204 96.048C314.865 96.688 315.196 97.616 315.196 98.832V104H313.756V99.04C313.756 98.1653 313.537 97.4987 313.1 97.04C312.662 96.5707 312.065 96.336 311.308 96.336C310.54 96.336 309.926 96.576 309.468 97.056C309.02 97.536 308.796 98.2347 308.796 99.152V104H307.34V95.232H308.796V96.48C309.084 96.032 309.473 95.6853 309.964 95.44C310.465 95.1947 311.014 95.072 311.612 95.072ZM325.334 99.28C325.334 99.5573 325.318 99.8507 325.286 100.16H318.278C318.332 101.024 318.625 101.701 319.158 102.192C319.702 102.672 320.358 102.912 321.126 102.912C321.756 102.912 322.278 102.768 322.694 102.48C323.121 102.181 323.42 101.787 323.59 101.296H325.158C324.924 102.139 324.454 102.827 323.75 103.36C323.046 103.883 322.172 104.144 321.126 104.144C320.294 104.144 319.548 103.957 318.886 103.584C318.236 103.211 317.724 102.683 317.35 102C316.977 101.307 316.79 100.507 316.79 99.6C316.79 98.6933 316.972 97.8987 317.334 97.216C317.697 96.5333 318.204 96.0107 318.854 95.648C319.516 95.2747 320.273 95.088 321.126 95.088C321.958 95.088 322.694 95.2693 323.334 95.632C323.974 95.9947 324.465 96.496 324.806 97.136C325.158 97.7653 325.334 98.48 325.334 99.28ZM323.83 98.976C323.83 98.4213 323.708 97.9467 323.462 97.552C323.217 97.1467 322.881 96.8427 322.454 96.64C322.038 96.4267 321.574 96.32 321.062 96.32C320.326 96.32 319.697 96.5547 319.174 97.024C318.662 97.4933 318.369 98.144 318.294 98.976H323.83ZM334.568 95.232L329.288 108.128H327.784L329.512 103.904L325.976 95.232H327.592L330.344 102.336L333.064 95.232H334.568ZM339.273 99.584C339.273 98.688 339.455 97.904 339.817 97.232C340.18 96.5493 340.676 96.0213 341.305 95.648C341.945 95.2747 342.655 95.088 343.433 95.088C344.201 95.088 344.868 95.2533 345.433 95.584C345.999 95.9147 346.42 96.3307 346.697 96.832V95.232H348.169V104H346.697V102.368C346.409 102.88 345.977 103.307 345.401 103.648C344.836 103.979 344.175 104.144 343.417 104.144C342.639 104.144 341.935 103.952 341.305 103.568C340.676 103.184 340.18 102.645 339.817 101.952C339.455 101.259 339.273 100.469 339.273 99.584ZM346.697 99.6C346.697 98.9387 346.564 98.3627 346.297 97.872C346.031 97.3813 345.668 97.008 345.209 96.752C344.761 96.4853 344.265 96.352 343.721 96.352C343.177 96.352 342.681 96.48 342.233 96.736C341.785 96.992 341.428 97.3653 341.161 97.856C340.895 98.3467 340.761 98.9227 340.761 99.584C340.761 100.256 340.895 100.843 341.161 101.344C341.428 101.835 341.785 102.213 342.233 102.48C342.681 102.736 343.177 102.864 343.721 102.864C344.265 102.864 344.761 102.736 345.209 102.48C345.668 102.213 346.031 101.835 346.297 101.344C346.564 100.843 346.697 100.261 346.697 99.6ZM354.742 95.072C355.403 95.072 356 95.216 356.534 95.504C357.067 95.7813 357.483 96.2027 357.782 96.768C358.091 97.3333 358.246 98.0213 358.246 98.832V104H356.806V99.04C356.806 98.1653 356.587 97.4987 356.15 97.04C355.712 96.5707 355.115 96.336 354.358 96.336C353.59 96.336 352.976 96.576 352.518 97.056C352.07 97.536 351.846 98.2347 351.846 99.152V104H350.39V92.16H351.846V96.48C352.134 96.032 352.528 95.6853 353.03 95.44C353.542 95.1947 354.112 95.072 354.742 95.072ZM368.384 99.28C368.384 99.5573 368.368 99.8507 368.336 100.16H361.328C361.382 101.024 361.675 101.701 362.208 102.192C362.752 102.672 363.408 102.912 364.176 102.912C364.806 102.912 365.328 102.768 365.744 102.48C366.171 102.181 366.47 101.787 366.64 101.296H368.208C367.974 102.139 367.504 102.827 366.8 103.36C366.096 103.883 365.222 104.144 364.176 104.144C363.344 104.144 362.598 103.957 361.936 103.584C361.286 103.211 360.774 102.683 360.4 102C360.027 101.307 359.84 100.507 359.84 99.6C359.84 98.6933 360.022 97.8987 360.384 97.216C360.747 96.5333 361.254 96.0107 361.904 95.648C362.566 95.2747 363.323 95.088 364.176 95.088C365.008 95.088 365.744 95.2693 366.384 95.632C367.024 95.9947 367.515 96.496 367.856 97.136C368.208 97.7653 368.384 98.48 368.384 99.28ZM366.88 98.976C366.88 98.4213 366.758 97.9467 366.512 97.552C366.267 97.1467 365.931 96.8427 365.504 96.64C365.088 96.4267 364.624 96.32 364.112 96.32C363.376 96.32 362.747 96.5547 362.224 97.024C361.712 97.4933 361.419 98.144 361.344 98.976H366.88ZM369.522 99.584C369.522 98.688 369.703 97.904 370.066 97.232C370.429 96.5493 370.925 96.0213 371.554 95.648C372.194 95.2747 372.903 95.088 373.682 95.088C374.45 95.088 375.117 95.2533 375.682 95.584C376.247 95.9147 376.669 96.3307 376.946 96.832V95.232H378.418V104H376.946V102.368C376.658 102.88 376.226 103.307 375.65 103.648C375.085 103.979 374.423 104.144 373.666 104.144C372.887 104.144 372.183 103.952 371.554 103.568C370.925 103.184 370.429 102.645 370.066 101.952C369.703 101.259 369.522 100.469 369.522 99.584ZM376.946 99.6C376.946 98.9387 376.813 98.3627 376.546 97.872C376.279 97.3813 375.917 97.008 375.458 96.752C375.01 96.4853 374.514 96.352 373.97 96.352C373.426 96.352 372.93 96.48 372.482 96.736C372.034 96.992 371.677 97.3653 371.41 97.856C371.143 98.3467 371.01 98.9227 371.01 99.584C371.01 100.256 371.143 100.843 371.41 101.344C371.677 101.835 372.034 102.213 372.482 102.48C372.93 102.736 373.426 102.864 373.97 102.864C374.514 102.864 375.01 102.736 375.458 102.48C375.917 102.213 376.279 101.835 376.546 101.344C376.813 100.843 376.946 100.261 376.946 99.6ZM380.095 99.584C380.095 98.688 380.276 97.904 380.639 97.232C381.001 96.5493 381.497 96.0213 382.127 95.648C382.767 95.2747 383.481 95.088 384.271 95.088C384.953 95.088 385.588 95.248 386.175 95.568C386.761 95.8773 387.209 96.288 387.519 96.8V92.16H388.991V104H387.519V102.352C387.231 102.875 386.804 103.307 386.239 103.648C385.673 103.979 385.012 104.144 384.255 104.144C383.476 104.144 382.767 103.952 382.127 103.568C381.497 103.184 381.001 102.645 380.639 101.952C380.276 101.259 380.095 100.469 380.095 99.584ZM387.519 99.6C387.519 98.9387 387.385 98.3627 387.119 97.872C386.852 97.3813 386.489 97.008 386.031 96.752C385.583 96.4853 385.087 96.352 384.543 96.352C383.999 96.352 383.503 96.48 383.055 96.736C382.607 96.992 382.249 97.3653 381.983 97.856C381.716 98.3467 381.583 98.9227 381.583 99.584C381.583 100.256 381.716 100.843 381.983 101.344C382.249 101.835 382.607 102.213 383.055 102.48C383.503 102.736 383.999 102.864 384.543 102.864C385.087 102.864 385.583 102.736 386.031 102.48C386.489 102.213 386.852 101.835 387.119 101.344C387.385 100.843 387.519 100.261 387.519 99.6ZM391.675 104.096C391.398 104.096 391.163 104 390.971 103.808C390.779 103.616 390.683 103.381 390.683 103.104C390.683 102.827 390.779 102.592 390.971 102.4C391.163 102.208 391.398 102.112 391.675 102.112C391.942 102.112 392.166 102.208 392.347 102.4C392.539 102.592 392.635 102.827 392.635 103.104C392.635 103.381 392.539 103.616 392.347 103.808C392.166 104 391.942 104.096 391.675 104.096Z" fill="black"/>
<defs>
<linearGradient id="paint0_linear_123_46" x1="71.122" y1="367.51" x2="248.607" y2="367.51" gradientUnits="userSpaceOnUse">
<stop stop-color="#4D4D4D"/>
<stop offset="1"/>
</linearGradient>
<linearGradient id="paint1_linear_123_46" x1="71.122" y1="367.51" x2="248.607" y2="367.51" gradientUnits="userSpaceOnUse">
<stop/>
<stop offset="1"/>
</linearGradient>
</defs>
</svg>
